<?xml version="1.0" standalone="no"?>
<!DOCTYPE svg PUBLIC "-//W3C//DTD SVG 20010904//EN"
 "http://www.w3.org/TR/2001/REC-SVG-20010904/DTD/svg10.dtd">
<svg version="1.0" xmlns="http://www.w3.org/2000/svg"
 width="1000.000000pt" height="1000.000000pt" viewBox="0 0 1000.000000 1000.000000"
 preserveAspectRatio="xMidYMid meet">
<metadata>
Created by potrace 1.11, written by Peter Selinger 2001-2013
</metadata>
<g transform="translate(0.000000,1000.000000) scale(0.100000,-0.100000)"
fill="#000000" stroke="none">
<path d="M4548 8535 c-2 -2 -111 -6 -243 -9 -236 -7 -292 -9 -510 -21 -107 -5
-138 -7 -315 -21 -47 -3 -103 -7 -125 -9 -61 -3 -206 -16 -245 -20 -19 -2 -64
-7 -100 -10 -36 -3 -81 -8 -100 -10 -19 -2 -57 -7 -85 -10 -70 -7 -305 -35
-335 -40 -14 -2 -47 -6 -73 -10 -27 -4 -59 -8 -70 -11 -12 -2 -42 -6 -67 -9
-25 -3 -52 -7 -60 -10 -8 -2 -37 -6 -65 -10 -27 -3 -68 -10 -90 -15 -22 -5
-56 -11 -75 -14 -19 -3 -60 -10 -90 -16 -30 -6 -68 -13 -85 -16 -16 -3 -79
-16 -140 -30 -60 -13 -121 -27 -135 -30 -14 -2 -59 -14 -100 -25 -41 -12 -86
-23 -100 -25 -14 -3 -105 -32 -202 -64 -442 -147 -654 -305 -635 -471 7 -59
30 -99 89 -157 68 -67 148 -114 330 -196 112 -50 525 -175 658 -199 14 -3 43
-10 65 -15 22 -6 54 -13 70 -15 17 -3 41 -8 55 -11 14 -3 39 -8 55 -11 17 -3
55 -10 85 -16 30 -6 69 -12 85 -15 17 -2 41 -6 55 -10 13 -3 40 -7 60 -10 19
-2 58 -8 85 -14 28 -5 136 -21 240 -35 225 -31 222 -30 415 -51 25 -3 61 -7
80 -9 19 -3 69 -7 110 -10 41 -4 86 -8 100 -10 14 -2 63 -6 110 -10 47 -3 105
-8 130 -10 25 -3 79 -7 120 -10 41 -2 118 -7 170 -10 165 -10 220 -13 395 -20
155 -7 309 -12 392 -14 l33 -1 2 -2652 3 -2651 184 279 c416 628 754 1138 852
1284 l104 155 5 1795 5 1795 45 1 c67 1 429 16 475 19 22 1 92 6 155 9 117 7
183 12 302 22 37 3 93 7 125 9 32 2 83 6 113 10 30 3 80 7 110 10 30 2 71 7
90 9 19 3 66 8 103 11 37 4 76 8 85 10 9 1 48 6 85 10 37 3 76 8 85 10 9 1 42
6 72 9 30 4 66 8 80 11 34 5 85 13 145 21 48 6 60 8 115 18 14 3 41 8 60 10
19 3 44 7 55 10 19 3 81 14 135 22 14 2 45 9 70 14 25 5 56 12 70 14 14 3 36
7 50 10 14 3 50 11 80 17 71 14 401 99 412 105 4 3 16 7 25 9 18 3 136 41 163
52 8 3 20 7 26 8 32 7 235 102 297 138 91 54 182 139 206 191 24 54 20 133
-10 184 -58 97 -234 214 -434 289 -22 8 -53 21 -70 28 -152 66 -719 206 -1005
250 -14 2 -41 6 -60 10 -19 4 -46 8 -60 10 -14 2 -43 6 -65 10 -22 3 -53 8
-70 11 -16 2 -41 6 -55 9 -14 2 -47 7 -75 10 -118 15 -168 21 -225 30 -14 2
-54 6 -90 10 -36 3 -76 8 -90 10 -14 2 -52 7 -85 10 -33 3 -76 7 -95 10 -19 2
-71 7 -115 10 -44 4 -91 8 -105 10 -14 2 -70 6 -125 10 -55 4 -113 8 -130 10
-16 2 -86 6 -155 10 -69 3 -145 8 -170 10 -42 3 -211 11 -450 21 -117 5 -1188
13 -1192 9z m1512 -59 c119 -9 277 -25 318 -31 13 -2 53 -7 90 -11 37 -3 70
-8 73 -10 3 -1 28 -6 55 -9 27 -4 65 -10 84 -15 19 -5 53 -11 75 -15 65 -9
232 -54 345 -92 279 -94 464 -219 536 -361 25 -49 29 -68 29 -137 0 -69 -5
-89 -30 -140 -38 -76 -163 -204 -267 -273 -67 -45 -299 -168 -365 -193 -13 -5
-33 -13 -45 -19 -22 -9 -69 -26 -198 -70 -183 -63 -573 -160 -746 -185 -22 -4
-46 -8 -54 -10 -8 -3 -33 -7 -55 -10 -22 -3 -51 -7 -65 -10 -26 -6 -49 -9
-142 -20 l-58 -7 -2 812 -3 812 -28 -39 c-27 -36 -511 -725 -580 -824 -36 -53
-135 -194 -199 -286 -24 -33 -106 -150 -182 -260 -206 -293 -186 -272 -249
-268 -28 2 -96 6 -149 10 -140 8 -222 16 -363 36 -38 5 -88 12 -110 15 -176
24 -439 90 -600 151 -245 92 -408 210 -472 341 -24 49 -28 69 -28 142 1 77 4
91 35 150 42 80 158 198 261 265 124 82 391 213 489 241 8 2 69 22 135 45 185
62 530 147 753 184 17 3 47 7 65 10 58 10 81 14 127 20 25 3 56 8 70 10 14 2
52 7 85 10 33 3 71 8 85 10 14 3 61 7 104 11 44 3 88 7 98 9 10 2 73 7 141 11
67 3 123 7 125 9 5 4 749 -4 812 -9z"/>
</g>
</svg>
