<svg xmlns="http://www.w3.org/2000/svg"><g id="logo"><path d="M7 24.34c0-7.49 31.35-13.81 70-13.81s70.07 6.32 70.07 13.81S115.74 38 77 38 7 31.77 7 24.34m73.4 12.93c21.46-1.37 38.64-8.12 38.37-15.47s-18-11.54-39.47-10.38c-21.52 1.37-38.71 8.11-38.37 15.47S58.87 38.65 80.4 37.27z"/><path d="M87.41 93.38v-82.1l-18.7 26.33v82.72l18.7-26.95m39.34 21.59v-41.6h-16.16V61.96h47.44v11.41h-16.16v41.6h-15.12"/><path d="M178.39 86.85c2.89-6.74 10-8.32 17.26-8.32 15.33 0 19.52 5.78 19.52 14.65v12.65c0 3.92.55 7.09 2.48 9.15h-14.44c-.75-1.17-.89-2.83-1-4.88H202c-3 4.75-8.94 6.4-12.31 6.4-4.68 0-13.41-1.79-13.41-10.93 0-7.84 4.6-11.56 16.5-11.56 6.53 0 9.29-1.79 9.29-4.13 0-3.3-2.48-4.33-5.3-4.33s-5.85 1.24-5.36 5h-13.02s-3.44-.07-5.23-.07c-6.74 0-9.42 4.27-9.42 10.66V115h-14.31V80h13.75v5.78h.21c2.89-5.51 5.85-7.29 15-7.29v8.32M202 96.75c-3.1 3.23-11.76 2.06-11.76 7.9a4.51 4.51 0 0 0 4.74 4.41c3.58 0 6.39-2.47 6.53-5zM220.61 115V80h14v6h.14c2.06-5.84 7.08-7.49 12.24-7.49 5.85 0 12.31 4.06 12.58 12.52V115h-14.21V94.06c0-3.64-1.58-5.22-4.74-5.22a6 6 0 0 0-5.78 6.26V115h-14.23m54.87-9.59a6.7 6.7 0 0 0 1.59 3.51 6 6 0 0 0 3.78 1.16c3.23 0 5.37-1.3 5.37-4.19 0-6.88-23.38 0-23.38-14.24 0-9.35 8.18-13.14 19.53-13.14 7.7 0 16 2.41 16.51 11.48h-13.29a4.13 4.13 0 0 0-1-3.65 5.26 5.26 0 0 0-3.65-1.44c-1.92 0-4.81.75-4.81 3.43 0 7.5 23.59.55 23.59 15.61 0 10-10.93 12.52-19.39 12.52-7.09 0-18-2.14-18-11.08h13.2m47.19 11.11c-14.78 0-22.07-8.32-22.07-19s7.29-19 22.07-19 22.07 8.39 22.07 19-7.29 19-22.07 19m0-8.19c4.54 0 7.09-3.58 7.09-10.8s-2.54-10.79-7.09-10.79-7.08 3.58-7.08 10.79 2.54 10.8 7.08 10.8zm49.44-15.88a6.94 6.94 0 0 0-1.65-3.72 5 5 0 0 0-3.71-1.37c-3.71 0-6.05 3.37-6.05 9.7 0 9.07 3.1 10.65 6.19 10.65 4.33 0 5.36-2.4 5.71-5.5h14.24a13.43 13.43 0 0 1-6.6 11.21c-3.71 2.2-8.59 3.1-13.62 3.1-11.76 0-21-6.88-21-19.19 0-8.79 7.16-18.77 21.25-18.77 10 0 18.5 5.09 19.94 13.89h-14.7"/><path d="M427 104.45c-2.88 8.32-11.41 12-19.73 12-11.07 0-20.84-6.26-20.84-18.36 0-12.86 8.74-19.6 21-19.6 15.75 0 21.11 11.62 20.36 21.8h-28c.48 5.29 2.82 8.46 7.63 8.46a6.74 6.74 0 0 0 6.4-4.33H427M414.38 92.9c-.38-3.85-3.16-6.9-7.28-6.9s-6.81 3-7.36 6.88zm15.75-2.9c1.51-9.28 9.63-11.48 18-11.48 15.33 0 19.52 5.78 19.52 14.65v12.65c0 3.92.55 7.09 2.48 9.15h-14.42c-.75-1.17-.89-2.83-1-4.88h-.14c-3 4.75-8.94 6.4-12.31 6.4-4.68 0-13.41-1.79-13.41-10.93 0-7.84 4.61-11.56 16.5-11.56 6.53 0 9.29-1.79 9.29-4.13 0-3.3-2.48-4.33-5.29-4.33S444 86.71 443.81 90h-13.68m24.41 6.74c-3.09 3.23-11.76 2.06-11.76 7.9a4.55 4.55 0 0 0 4.74 4.41c3.58 0 6.4-2.47 6.54-5zM472.07 115V80h14.1v6h.14c2.06-5.84 7.09-7.49 12.17-7.49A12.41 12.41 0 0 1 511.14 91v24h-14.31V94.06c0-3.64-1.51-5.22-4.74-5.22s-5.71 3-5.71 6.26V115h-14.3"/></g></svg>
