<svg id="Layer_1" data-name="Layer 1" xmlns="http://www.w3.org/2000/svg" viewBox="0 0 100.7 135.23"><defs><style>.cls-1{fill:none;stroke:#fff;stroke-miterlimit:10;stroke-width:2px;}.cls-2{fill:#efb400;}.cls-3{fill:#fff;}</style></defs><circle class="cls-1" cx="49.28" cy="49.28" r="48.28"/><path class="cls-2" d="M84.15 50.18L58.59 65.02 33.03 79.85V20.51l25.56 14.83 25.56 14.84z"/><path class="cls-3" d="M9.3 119.59h1.28l1.89 10h.46l2.26-9.89h1.44l2.26 9.89h.46l1.89-10h1.26l-2.24 11.07H18l-2.1-9.46-2.1 9.46h-2.24zm20.23 5.49v4.1q0 .59.93.7v.94a2.58 2.58 0 0 1-1.9-.64 7 7 0 0 1-2.88.64 2.17 2.17 0 0 1-1.68-.62 2.55 2.55 0 0 1-.58-1.79 2.25 2.25 0 0 1 .59-1.72 3.14 3.14 0 0 1 1.86-.68l2.51-.24v-.69a1.61 1.61 0 0 0-.35-1.17 1.3 1.3 0 0 0-1-.35 23.05 23.05 0 0 0-2.66.16h-.5v-.91a16.14 16.14 0 0 1 3.12-.35 2.68 2.68 0 0 1 2 .62 2.69 2.69 0 0 1 .54 2zm-4.93 3.26q0 1.47 1.22 1.47a6.48 6.48 0 0 0 2.14-.37l.37-.13v-2.64l-2.37.22a1.55 1.55 0 0 0-1 .42 1.48 1.48 0 0 0-.36 1.04zm11.32-4.63h-2.54v3.82a5.15 5.15 0 0 0 .2 1.81c.13.29.45.43 1 .43l1.42-.1.08 1a11 11 0 0 1-1.63.18 2.09 2.09 0 0 1-1.73-.61 4 4 0 0 1-.48-2.32v-4.21h-1.18v-1h1.14v-2.45h1.18v2.45h2.54zm4.48-1.2a13.85 13.85 0 0 1 1.79.19h.38v1a18.61 18.61 0 0 0-1.89-.14 2.19 2.19 0 0 0-1.85.65 4.21 4.21 0 0 0-.49 2.4 4.7 4.7 0 0 0 .46 2.44 2.14 2.14 0 0 0 1.9.69l1.89-.14v1a16.43 16.43 0 0 1-2.22.22 3 3 0 0 1-2.58-1 5.59 5.59 0 0 1-.71-3.24 5.07 5.07 0 0 1 .77-3.2 3.17 3.17 0 0 1 2.55-.87zm5.08 8.16h-1.2v-11.49h1.2v3.94a5.73 5.73 0 0 1 2.46-.61 2.36 2.36 0 0 1 2.15.86 6.1 6.1 0 0 1 .55 3.07v4.22h-1.2v-4.19a5.41 5.41 0 0 0-.33-2.28 1.42 1.42 0 0 0-1.38-.62 5.33 5.33 0 0 0-2 .37l-.3.11zm17.4-11.08h1.28l-2.9 11.07h-2.74l-2.9-11.07h1.28l2.54 10h.9zm2.88 1.27v-1.39H67v1.39zm0 9.81v-8H67v8zm9.59-11.49v11.49h-1.19v-.54a4.87 4.87 0 0 1-2.43.7 3.55 3.55 0 0 1-1.12-.16 2.28 2.28 0 0 1-.9-.58 4.51 4.51 0 0 1-.86-3.19 5.67 5.67 0 0 1 .78-3.36 3 3 0 0 1 2.57-1 10.13 10.13 0 0 1 2 .21v-3.54zm-4.16 10.46a2.09 2.09 0 0 0 .74.11 4 4 0 0 0 1-.15 6.13 6.13 0 0 0 .89-.3l.32-.14v-5.42a10.38 10.38 0 0 0-1.9-.19 1.83 1.83 0 0 0-1.7.78 4.7 4.7 0 0 0-.48 2.41 4 4 0 0 0 .56 2.5 1.39 1.39 0 0 0 .57.4zm11.81.03h.46v.94a22.92 22.92 0 0 1-3.12.26 2.81 2.81 0 0 1-2.45-1 5.37 5.37 0 0 1-.72-3.11q0-4.21 3.34-4.21a3.06 3.06 0 0 1 2.42.9 4.21 4.21 0 0 1 .8 2.84l-.06.91h-5.22a3.27 3.27 0 0 0 .48 2 2 2 0 0 0 1.67.64q1.19-.07 2.4-.17zm-.43-3.47a3.47 3.47 0 0 0-.47-2.08 1.82 1.82 0 0 0-1.54-.61 2 2 0 0 0-1.6.64 3.23 3.23 0 0 0-.55 2zm2.76.45a5.07 5.07 0 0 1 .78-3.17 4.07 4.07 0 0 1 5.29 0 5.12 5.12 0 0 1 .78 3.17 5.41 5.41 0 0 1-.74 3.18 4.14 4.14 0 0 1-5.38 0 5.4 5.4 0 0 1-.73-3.18zm1.23 0a5.09 5.09 0 0 0 .42 2.46 2.59 2.59 0 0 0 3.54 0 5.15 5.15 0 0 0 .42-2.46 4.52 4.52 0 0 0-.46-2.42 2 2 0 0 0-1.72-.66 2 2 0 0 0-1.73.66 4.43 4.43 0 0 0-.47 2.4z"/></svg>