<svg xmlns="http://www.w3.org/2000/svg" viewBox="0 0 54.79 54.79"><defs><style>.cls-1,.cls-2{fill:none;stroke:#efb400;stroke-miterlimit:10;stroke-width:1.5px}.cls-2{stroke-linecap:round}.cls-3{fill:#efb400}</style></defs><title>focused</title><g id="Layer_2" data-name="Layer 2"><g id="Layer_1-2" data-name="Layer 1"><path class="cls-1" d="M27.63 44.34A16.38 16.38 0 1 1 44 28a16.38 16.38 0 0 1-16.37 16.34"/><path class="cls-2" d="M40.32.75h12.23A1.49 1.49 0 0 1 54 2.24v12.24m0 25.68v12.39A1.49 1.49 0 0 1 52.55 54H40.32m-25.69 0H2.24a1.49 1.49 0 0 1-1.49-1.45V40.16m0-25.68V2.24A1.49 1.49 0 0 1 2.24.75h12.39"/><circle class="cls-3" cx="27.63" cy="27.95" r="2.33"/></g></g></svg>