<svg xmlns="http://www.w3.org/2000/svg" viewBox="0 0 56.08 60.45"><defs><style>.cls-1{fill:none;stroke:#efb400;stroke-miterlimit:10;stroke-width:1.5px}.cls-2{fill:#efb400}</style></defs><title>innovative</title><g id="Layer_2" data-name="Layer 2"><g id="Layer_1-2" data-name="Layer 1"><path class="cls-1" d="M23.78 1.77a1.34 1.34 0 0 1 1.3-1H31a1.34 1.34 0 0 1 1.3 1l1.5 6a2.78 2.78 0 0 0 1.74 1.95 22 22 0 0 1 6.59 3.59 2.77 2.77 0 0 0 2.43.51l6.11-1.52a1.34 1.34 0 0 1 1.49.63l3 5.12a1.34 1.34 0 0 1-.21 1.63l-5.09 5.09a1.5 1.5 0 0 0-.41 1.34 22.11 22.11 0 0 1 .71 4.14 22.11 22.11 0 0 1-.71 4.14 1.5 1.5 0 0 0 .41 1.34l5.09 5.09a1.34 1.34 0 0 1 .21 1.63l-3 5.12a1.34 1.34 0 0 1-1.49.63l-6.11-1.52a2.77 2.77 0 0 0-2.43.51 22 22 0 0 1-6.59 3.59 2.78 2.78 0 0 0-1.74 1.95l-1.5 6a1.34 1.34 0 0 1-1.3 1h-5.92a1.34 1.34 0 0 1-1.3-1l-1.5-6a2.78 2.78 0 0 0-1.74-1.95A22 22 0 0 1 14 47.16a2.77 2.77 0 0 0-2.43-.51l-6.15 1.52a1.34 1.34 0 0 1-1.49-.63l-3-5.12a1.34 1.34 0 0 1 .21-1.63l5.1-5.09a1.5 1.5 0 0 0 .41-1.34 22.11 22.11 0 0 1-.71-4.14 22.11 22.11 0 0 1 .71-4.14 1.5 1.5 0 0 0-.41-1.34l-5.1-5.09A1.34 1.34 0 0 1 .93 18l3-5.12a1.34 1.34 0 0 1 1.49-.63l6.11 1.52a2.77 2.77 0 0 0 2.47-.48 22 22 0 0 1 6.59-3.59 2.78 2.78 0 0 0 1.74-1.95z"/><path class="cls-2" d="M36.64 42.12a14.54 14.54 0 0 1-14.89.9 1.6 1.6 0 0 0 0-.33 1.62 1.62 0 1 0-1.62 1.62 1.6 1.6 0 0 0 1-.38 15.57 15.57 0 0 0 16-.94.52.52 0 1 0-.6-.86zm4.56-20.67a.53.53 0 0 0-.86.6 14.49 14.49 0 0 1 .76 15.13 1.61 1.61 0 1 0 1.27 1.58 1.6 1.6 0 0 0-.37-1 15.54 15.54 0 0 0-.8-16.31zm-25.06-1.31a1.62 1.62 0 0 0-1.62 1.62 1.6 1.6 0 0 0 .36 1 15.54 15.54 0 0 0 .82 16.3.52.52 0 1 0 .86-.6 14.49 14.49 0 0 1-.79-15.14 1.61 1.61 0 1 0 .36-3.19zm20.63-3.9a1.6 1.6 0 0 0-1 .36 15.54 15.54 0 0 0-16.32 1 .52.52 0 0 0 .61.85 14.48 14.48 0 0 1 15.14-1 1.59 1.59 0 0 0 0 .37 1.62 1.62 0 1 0 1.62-1.62z"/></g></g></svg>