<svg xmlns="http://www.w3.org/2000/svg" viewBox="0 0 71.11 65.12"><defs><style>.cls-1,.cls-3{fill:none;stroke:#efb400;stroke-miterlimit:10;stroke-width:1.5px;}.cls-1{stroke-linecap:round;}.cls-2{fill:#efb400;}</style></defs><title>invest</title><g id="Layer_2" data-name="Layer 2"><g id="Layer_1-2" data-name="Layer 1"><polyline class="cls-1" points="27.1 62.6 18.21 62.6 0.87 32.56 18.21 2.52 25.55 2.52"/><polyline class="cls-1" points="45.56 2.52 52.9 2.52 70.24 32.56 52.9 62.6 47.11 62.6"/><circle class="cls-2" cx="25.35" cy="2.52" r="2.52"/><circle class="cls-2" cx="45.08" cy="62.6" r="2.52"/><circle class="cls-3" cx="36.16" cy="32.52" r="18.03"/><path class="cls-3" d="M34.23,50.45C28,46.66,24.18,38.75,25.18,30.13a21.62,21.62,0,0,1,9.25-15.65"/><path class="cls-3" d="M38.1,50.39c6.2-3.81,10-11.69,9-20.26a21.62,21.62,0,0,0-9.25-15.65"/><path class="cls-3" d="M48.84,19.05a18,18,0,0,1-25.35,0"/><path class="cls-3" d="M24.21,46a18,18,0,0,1,24.16.24"/><line class="cls-3" x1="36.16" y1="14.48" x2="36.16" y2="50.39"/><line class="cls-3" x1="18.12" y1="32.52" x2="54.18" y2="32.52"/></g></g></svg>