<svg xmlns="http://www.w3.org/2000/svg" viewBox="0 0 56.29 59.74"><defs><style>.cls-1,.cls-3{fill:none;stroke:#efb400;stroke-miterlimit:10;stroke-width:1.5px}.cls-2{fill:#efb400}.cls-3{stroke-linecap:round}</style></defs><title>optimize</title><g id="Layer_2" data-name="Layer 2"><g id="Layer_1-2" data-name="Layer 1"><path class="cls-1" d="M50.24 45.48c-4.3-4.28-8.58-8.59-12.89-12.86a2.16 2.16 0 0 1-.7-2.18 10.18 10.18 0 0 0-12.06-11.6c1.66 1.68 3.2 3.29 4.8 4.84a2.26 2.26 0 0 1 .73 2.32c-.36 1.44-.73 2.87-1.19 4.28a1.63 1.63 0 0 1-.92.91c-1.41.45-2.85.81-4.29 1.15a2.21 2.21 0 0 1-2.23-.72c-1.37-1.43-2.79-2.8-4.2-4.2-.2-.2-.42-.37-.73-.63-.08.57-.18 1-.2 1.41a10.2 10.2 0 0 0 12.1 10.64 1.7 1.7 0 0 1 1.69.49Q36.8 46 43.49 52.7" id="XUcoM1"/><circle class="cls-2" cx="23.87" cy="2.52" r="2.52"/><circle class="cls-2" cx="32.11" cy="57.22" r="2.52"/><path class="cls-3" d="M55.54 33.5a27.65 27.65 0 0 1-23.43 23.72m0-54.7A27.65 27.65 0 0 1 55.4 25.31m-54.51 0a27.65 27.65 0 0 1 23-22.74m-.02 54.6A27.65 27.65 0 0 1 .75 33.5"/></g></g></svg>