<svg xmlns="http://www.w3.org/2000/svg" viewBox="0 0 56.73 53.11"><defs><style>.cls-1{fill:none;stroke:#efb400;stroke-linecap:round;stroke-linejoin:round;stroke-width:1.5px;}.cls-2{fill:#efb400;}</style></defs><title>safe</title><g id="Layer_2" data-name="Layer 2"><g id="Layer_1-2" data-name="Layer 1"><path class="cls-1" d="M7.47,50.6H3.65a2.89,2.89,0,0,1-2.52-4.31L13.54,24.16,25.84,2.23a2.89,2.89,0,0,1,5,0L43.19,24.16,55.6,46.29a2.89,2.89,0,0,1-2.52,4.31H15.89"/><path class="cls-2" d="M28.37,42.53a7.1,7.1,0,0,1-7.09-7.09c0-2.09,1.35-4.13,3.06-6.72a41.77,41.77,0,0,0,4-7.12,41.85,41.85,0,0,0,4,7.12c1.71,2.59,3.06,4.63,3.06,6.72A7.1,7.1,0,0,1,28.37,42.53Z"/><circle class="cls-2" cx="14.72" cy="50.6" r="2.52"/></g></g></svg>