<svg xmlns="http://www.w3.org/2000/svg" viewBox="0 0 52.79 57.17"><defs><style>.cls-1{fill:none;stroke:#efb400;stroke-miterlimit:10;stroke-width:1.5px}.cls-2,.cls-3{fill:#efb400}.cls-2{fill-rule:evenodd}</style></defs><title>trusted</title><g id="Layer_2" data-name="Layer 2"><g id="Layer_1-2" data-name="Layer 1"><path class="cls-1" d="M21.86 52.14A42.69 42.69 0 0 1 8.73 37a52.35 52.35 0 0 1-6-22.45m47.16 1.3c-.08 1-.17 1.95-.3 2.92a49.31 49.31 0 0 1-12.08 27.07 44.52 44.52 0 0 1-6.8 6.31M7.89 8.41c5.85-1.78 11.22-4.8 16.79-7.31a4.25 4.25 0 0 1 3.32 0c5.59 2.53 11 5.55 16.87 7.35" id="_26RyUy" data-name="26RyUy"/><path class="cls-2" d="M10.84 18.9c0-1.66 6.94-3.06 15.5-3.06s15.52 1.4 15.52 3.06-6.94 3-15.52 3-15.5-1.39-15.5-3m16.25 2.86c4.75-.3 8.56-1.8 8.5-3.43s-4-2.56-8.74-2.3-8.57 1.8-8.5 3.42 3.97 2.62 8.73 2.31z"/><path class="cls-2" d="M28.64 34.19V16l-4.15 5.84v18.32l4.15-5.97"/><circle class="cls-3" cx="50.27" cy="10.01" r="2.52"/><circle class="cls-3" cx="2.52" cy="9.37" r="2.52"/><circle class="cls-3" cx="26.34" cy="54.66" r="2.52"/></g></g></svg>