<svg id="Layer_1" xmlns="http://www.w3.org/2000/svg" viewBox="0 0 86.5 103.4"><style>.st0{fill:#fff}</style><path class="st0" d="M85.4 43.3l-.1-.1s.1 0 .1-.1c0 0 0-.1-.1-.1l-.3-1-.4-.4v-.7l-.1-.1h-.3l-.3-.2v-.1l-.1-.1h-.2L77 33.1l-3-3.2h.2s.1 0 .1-.1V29s0-.1-.1-.1h-.5s0-.1-.1-.1h-2.3s-.1 0-.1.1V30s0 .1.1.1h.9v.3h-.5s-.1 0-.1.1v.1s0 .1.1.1h.5v.3h-.5s-.1 0-.1.1v.1s0 .1.1.1h.5v.3h-.5s-.1 0-.1.1v.1s0 .1.1.1h.5v.3h-.5s-.1 0-.1.1v.1s0 .1.1.1h.5v.3h-.5s-.1 0-.1.1v.1s0 .1.1.1h.5v.3h-.5s-.1 0-.1.1v.1s0 .1.1.1h.5v.3h-.5s-.1 0-.1.1v.1s0 .1.1.1h.5v.3h-.5s-.1 0-.1.1v.1s0 .1.1.1h.5V34h-.5s-.1 0-.1.1v.1s0 .1.1.1h.5v.3H72s-.1 0-.1.1v.1s0 .1.1.1h.4v.1H72s-.1 0-.1.1v.1s0 .1.1.1h.4v.3H72s-.1 0-.1.1v.1s0 .1.1.1h.4v.1H72s-.1 0-.1.1v.1s0 .1.1.1h.4v.1h-.6s-.1 0-.1.1c0 0 0 .1.1.1h.7-.5s-.1 0-.1.1v.1s0 .1.1.1h.5v.3H72s-.1 0-.1.1v.1s0 .1.1.1h.5v.3H72s-.1 0-.1.1v.1s0 .1.1.1h.5V38H72s-.1 0-.1.1v.1s0 .1.1.1h.5v.4H72s-.1 0-.1.1v.1s0 .1.1.1h.5v.4H72s-.1 0-.1.1v.1s0 .1.1.1h.5v.4H72s-.1 0-.1.1v.1s0 .1.1.1h.5v.3h-.9s-.1 0-.1.1v.1h-2.3s-.1 0-.1.1v.2L65.4 40h-.1l-.1-2.7v-2c0-.2-.1-.3-.3-.3h-.2c-.2 0-.3.1-.3.3V38h-.2v-1.5c0-.1 0-.2-.1-.2l-.1-.1c-.1-.2-.2-.2-.3-.2h-.1s-.1 0-.1.1H63c0-.1-.1-.1-.2-.1h-.4s-.1 0-.1.1h-.1c0-.1-.2-.2-.3-.2h-.1l-1.3-.9v-3.8c0-.2-.1-.3-.3-.3h-.1c-.2 0-.3.1-.3.3v3.1l-.6-.4v-1.4c0-.2-.1-.3-.3-.3h-.3V7.6c0-.2-.1-.3-.3-.3 0-.1 0-.1-.1-.2L55.1 4V2.1c0-.2-.1-.3-.3-.3h-1.2c0-.2-.1-.3-.3-.3h-.4c-.2 0-.3.1-.3.3h-6c0-.2-.1-.3-.3-.3h-.5c-.2 0-.3.1-.3.3H42c0-.2-.1-.3-.3-.3h-.5c-.2 0-.3.1-.3.3H36c0-.2-.1-.3-.3-.3h-.5c-.2 0-.3.1-.3.3h-.7c-.1 0-.2.2-.2.3v.8c0 .1 0 .1.1.2v.1c0 .1-.1.1-.1.2v.7l-3.1 3.1s0 .1-.1.1c-.2 0-.3.2-.3.3v22.7s-.1.1-.1.2v2H30c-.2 0-.3.1-.3.3v3.3h-6.5c-.2 0-.3.1-.3.3v6.1h-4.7V42s0-.1-.1-.1h-.6v-1.5s0-.1-.1-.1h-2.3v-.1s0-.1-.1-.1h-.9v-.3h.5s.1 0 .1-.1v-.1s0-.1-.1-.1h-.5v-.4h.5s.1 0 .1-.1v-.1s0-.1-.1-.1h-.5v-.4h.5s.1 0 .1-.1v-.1s0-.1-.1-.1h-.5v-.4h.5s.1 0 .1-.1v.4s0-.1-.1-.1h-.5v-.4h.5s.1 0 .1-.1v-.1s0-.1-.1-.1h-.5v-.3h.5s.1 0 .1-.1v.2s0-.1-.1-.1h-.5v-.3h.5s.1 0 .1-.1v-.1s0-.1-.1-.1h-.5.7s.1 0 .1-.1c0 0 0-.1-.1-.1h-.6V36h.4s.1 0 .1-.1v.1s0-.1-.1-.1h-.4v-.3h.4s.1 0 .1-.1v-.1s0-.1-.1-.1h-.4V35h.4s.1 0 .1-.1v-.1s0-.1-.1-.1h-.4v-.3h.4s.1 0 .1-.1v-.1s0-.1-.1-.1h-.4v-.3h.5s.1 0 .1-.1v-.1s0-.1-.1-.1h-.5v-.3h.5s.1 0 .1-.1V33s0-.1-.1-.1h-.5v-.3h.5s.1 0 .1-.1v-.1s0-.1-.1-.1h-.5V32h.5s.1 0 .1-.1v-.1s0-.1-.1-.1h-.5v-.3h.5s.1 0 .1-.1v-.1s0-.1-.1-.1h-.5v-.3h.5s.1 0 .1-.1v-.1s0-.1-.1-.1h-.5v-.3h.5s.1 0 .1-.1V30s0-.1-.1-.1h-.5v-.3h.5s.1 0 .1-.1v-.1s0-.1-.1-.1h-.5V29h.5s.1 0 .1-.1v-.1s0-.1-.1-.1h-.5v-.3h.9s.1 0 .1-.1v-1.1s0-.1-.1-.1h-2.3s-.1 0-.1.1h-.5s-.1 0-.1.1v.8s0 .1.1.1h.8l-3 3.2-6.6 7.1h-.3L3 40.3v.1l-.3.2h-.3l-.1.1v.7l-.4.4-.2 1.2s-.1 0-.1.1c0 0 0 .1.1.1l-.1.1v.3l.1.3v.1h.2v4.3s0 .1.1.1h.1H2h.1V44h.1v-.2l.1-.1v2s0 .1.1.1h.1v.1s-.1 0-.1.1v.1s0 .1.1.1H3s.1 0 .1-.1v-.2s0-.1-.1-.1v-.2s.1 0 .1-.1h.1v-.1s.1 0 0-.1V45s0-.1-.1-.1V43h7.1c0 .1 0 .1.1.2v.8c0 .2.1.3.3.3h.3c.1 0 .2 0 .2-.1 0 .1.1.1.2.1l.1.4h-.7s-.1 0-.1.1c-.1.1-.1.2-.1.3v.7c0 .2.1.3.3.3h.2c0 .1.1.2.2.2l1 .2v4.6h-.8c-.1 0-.2.1-.3.2v.1c0 .1 0 .2.1.2 0 0-.1.1-.1.2s0 .1.1.2c0 .1-.1.1-.1.2v.1l-.6 4.6-.1.1-.6.2s-.1 0-.1.1L9 58.4l-.1.1-.2.9v.2l.1.2c-.1.1-.1.1-.1.2v1.1c0 .1.1.2.3.2h.9c0 .1.1.2.2.3.1 0 .1 0 .2-.1h.6l1.2.6v3c0 .2.2.3.3.3v.1h-.1l-.1.1v.5l-.1.1v.6c-.1 0-.2.1-.2.3 0 .1.1.2.1.2v.3l-.1.1v.6l-.1.1v.6l-.1.1v.6l.3 1v.5l-.1.1v.6l-.1.1v.6l-.1.1v.6l-.1.1v.6l-.1.1v.6l-.1.1v.7l-.1.1v.5l-.1.1v.6l-.1.1v.5l-.1.1v.6l-.1.1h-.3l-.4.2c-.1 0-.1.1-.2.2l-.2.4v.2l.1.2-.1.2V81s-.1 0-.1.1l-.2.2s0 .1-.1.1l-.1.1v.1l-.2.1s-.1 0-.1.1l-.2.2s0 .1-.1.1l-.1.1h-.2s-.1 0-.1.1l-.3.3s0 .1-.1.1l-.1.1v.1h-.1s-.1 0-.1.1l-.1.1c-.1 0-.1.1-.2.2v.1l-.2.6H7v.2l-.2.5v.3l-1.4 2.4-.5.5c-.1.1-.1.3 0 .4l.2.2-.2.2c-.1.1-.1.1-.1.2v.1l.1.2v.1l.1.1.3.3h.8l.4.3h1.2l2.9 2v4.5l.1.6v.1l.3.6s0 .1.1.1l.5.5.1.1.6.3h.1l.5.1h.2c-.3.4-.5.9-.5 1.4 0 1.3 1 2.3 2.3 2.3s2.3-1 2.3-2.3c0-.5-.2-1-.4-1.3l5-.1c-.3.4-.5.9-.5 1.4 0 1.3 1 2.3 2.3 2.3s2.3-1 2.3-2.3c0-.5-.2-1-.5-1.4h.8v-.1h.1l.6-.3s.1 0 .1-.1l.5-.5.1-.1.3-.6v-.1l.1-.6v-4.3l-.1-.7v-.1l-.3-.6s0-.1-.1-.1l-.5-.5-.1-.1-.6-.3h-.1l-.7-.1H25v-.5h.4l.5-.1h.2l4.2-.3c0 .1.2.2.3.2h25.1c.1 0 .3-.1.3-.2l2.2.2c0 .1.1.2.3.2l3.4.1h.1l.5.1h.4v.6h-.5l-.7.1h-.1l-.6.1s-.1 0-.1.1l-.5.5-.1.1-.3.6v.1l-.1.7v4.3l.1.6v.1l.3.6s0 .1.1.1l.5.5.1.1.6.3h.1l.4.1h.8c-.3.4-.5.9-.5 1.4 0 1.3 1 2.3 2.3 2.3s2.3-1 2.3-2.3c0-.5-.2-1-.4-1.3l5 .1c-.2.4-.4.8-.4 1.3 0 1.3 1 2.3 2.3 2.3s2.3-1 2.3-2.3c0-.5-.1-.9-.4-1.3.1 0 .1-.1.1-.1V99h.1l.6-.3s.1 0 .1-.1l.5-.5.1-.1.3-.6v-.1l.1-.6v-4.4l3.1-2.2h1.9c.1 0 .2 0 .2-.1l.3-.3.1-.1.1-.2c.1-.1 0-.2-.1-.3l-.2-.2h-.1l.2-.2c.1-.1.1-.2 0-.3v-.1l-.5-.5-.9-1.6-.3-1.2c0-.1.1-.2 0-.3l-.2-.5V84l-.2-.5v-.1c0-.1-.1-.2-.2-.2l-.1-.1h-.1V83l-.1-.1-.1-.1-.2-.2s-.1 0-.1-.1l-.2-.1v-.1l-.1-.1s0-.1-.1-.1l-.4-.3-.1-.1-.2-.1-.1-.2s0-.1-.1-.1l-.2-.2-.1-.1H78v-.2l.1-.3v-.2l-.2-.4c0-.1-.1-.1-.2-.2l-.4-.2H77l-.1-.1h-.1v-.7l-.1-.1V78l-.1-.1v-.7l-.1-.1v-.7l-.1-.1v-.7l-.1-.1v-.6l-.1-.1v-.7l-.1-.1v-.6l-.1-.1v-.6s0-.1-.1-.1v-.7l.1-.7v-.7l-.1-.1v-.6l-.1-.1v-.5l-.1-.1v-.3l.5-.4c.1 0 .2-.1.2-.1s.1-.1.1-.2v-.3l.1-.9.2-1.9v-1.2c0-.1-.1-.2-.1-.3h-.8v-.9l1.1-.5h1.9c.2 0 .3-.1.3-.3v-2.2c0-.2-.1-.3-.3-.3h-.1l-.1-.4s0-.1-.1-.1l-.6-.6-.1-.1c.1 0 .2-.2.2-.3v-.2c0-.1 0-.1-.1-.2 0-.1 0-.1-.1-.1 0-.1.1-.1.1-.2s0-.1-.1-.2c.1-.1.1-.1.1-.2s0-.1-.1-.2-.1-.1-.2-.1h-1.8v-6.1l.1-2.8.8-.1c.1 0 .2-.1.2-.2h.3c.2 0 .3-.1.3-.3v-.7c0-.2-.1-.3-.3-.3h-.5l.1-.4c.1 0 .1-.1.2-.1.1.1.1.1.2.1h.2c.2 0 .3-.1.3-.3v-.9c0-.1.1-.1.1-.2V44h.6c.1 0 .1 0 .2-.1h.5-.2 4.6v1.9s-.1 0-.1.1v.5h.1s0 .1.1.1v.2s-.1 0-.1.1v.2s0 .1.1.1h.2s.1 0 .1-.1v-.1s0-.1-.1-.1v-.1h.1s.1 0 .1-.1v-2l.1.1v.2h.1v4.5h.8s.1 0 .1-.1V45h.2v-.1l.1-.3-.1-1.3zM32.2 17.7v2.4l-.7.8-.2.1v-3.2l.2-.1h.7zm-.8 11.6v-2.6h.7v2l-.7.6zm0-4.1v-2.6h.7v1.9l-.7.7zm1.7-4.6h-.2l.7-.8v.8h-.5zm4.4 5.8h.3s0 .1-.1.1l-.1.2v1.2l.1 1.5v.4h-.5v-3.5c.1 0 .2.1.3.1zm1.7-.4h.5l.4.2V30c0-.2-.1-.3-.3-.3H39v-.4l.1-1.5v-1.1l-.1-.2s0-.1-.1-.1v-.1l.3-.3zm1-4.2v2.4h-.1l-.8-8.8.5.1.4 2.1v3s-.1.1-.1.2c0 0-.1.1-.1.2v.5c.1.2.1.2.2.3zm-.1-9.6c-.1 0-.1-.1 0 0-.1-.1-.3 0-.3 0l-.6-2.8c.1 0 .1.1.2.1h.4c.1 0 .1 0 .2-.1h.1v2.8zm.9-.9c-.1 0-.2.2-.2.3v.4h-.1v-1.8l.3 1.1zm3.5 4.4H44v-1.1l.5 1.1zm4.3-4.1v18.2H48c-.1 0-.1 0-.2.1-.1 0-.1.1-.1.2v-8.8c0-.1 0-.1-.1-.2V10.6h.5v.1c0 .1.1.2.3.2h.3v.1l-.1.2v.2l.2.2zm2.1 4.3c.1 0 .2-.1.3-.2v14.1h-1.4c-.1 0-.1 0-.2.1l-.1.1v-.1s-.1 0-.1-.1v-9.2h.4s.1-.1.1-.2v-.6c.1-.1.1-.1.1-.2v-.9l-.1-.5v-.5c0-.1 0-.1-.1-.2 0-.1-.2-.2-.3-.2h-.1v-2.2h.2v.8c0 .2.1.3.3.3.2 0 .3-.1.3-.3.1 0 .2-.1.2-.3V11h.1v4.9c.1-.1.3 0 .4 0zM50 5.6l-.1.1v.1h-.5v-.1l-.3-.3h1.2l-.3.2zm6.5 27v-1.8h.7v1.8h-.7zm.6-14.9l.2.1V21l-.2-.2-.8-.8v-2.2h.8zm-.1 4.9h.1v2.6l-.8-.8v-1.9h.7zm-.1 4.1l.2.1v2.5l-.7-.7v-2h.5zm.3-13.4v2.9l-1-1.2v-2.1h.9l.2.1v.3zm16.9 22.6v-.4l-.4-5 3.2 3.4 5.9 6.3h-8.3l-.4-4.3zM46.3 66.6l5.8.1 10.5 13.7.9 1.1-17.2-14.9zM13.7 52.5v.4c-.1.1-.1.1-.1.2-.1 0-.2.1-.3.2-.1 0-.2.1-.3.2h-.1v-4.8h.9v2.5c0 .1-.1.1-.1.2v.8c-.1.2 0 .2 0 .3zm-.8-17c-.1 0-.1 0 0 0l-.1.2v.1l-.3 4.3H4.2l5.9-6.3 3.2-3.4-.4 5.1zm41.8-7.4v.7h-.5l-.1-.1v-.5h.3c.1 0 .1 0 .3-.1zM63.6 67h.4v.5l-.2.5-.9 3v6.2l-3.4-4.4-4.7-6h-.5H56h-1l.1.1h2.1l6.4.1zM41.4 51.4V51h.2c.2 0 .3-.2.3-.3 0-.2-.1-.3-.3-.3h-.2v-.2h.2c.2 0 .3-.2.3-.3 0-.2-.1-.3-.3-.3h-.3v-.2h.3c.2 0 .3-.2.3-.3s-.1-.3-.3-.3H41c-.1 0-.1-.1-.2-.1h-1.3v-2.4l.1-.7h8.2l.4 2v1.1h-1.3c-.1 0-.1 0-.2.1H46c-.2 0-.3.2-.3.3 0 .2.1.3.3.3h.3v.2H46c-.2 0-.3.2-.3.3 0 .2.1.3.3.3h.3v.2H46c-.2 0-.3.2-.3.3 0 .1.1.3.2.3l-.1.3v.1h-1v-1.3c0-.2-.1-.3-.3-.3h-1.6c-.2 0-.3.1-.3.3v1.3h-1.2zm-25.6-2.9v-1.6l1-.2s.1 0 .1-.1c0 .1.2.2.3.2h.1v4-1.1c0-.2-.1-.3-.3-.3h-.5c0-.1-.1-.1-.2-.1h-.4l-.1-.8zm2.7-1.3v1.1H18v-1.1h.5zm-.5-.9v-1.1h.6v1.1H18zm.5 2.8v1.1H18v-1.1h.5zm2.8-5.1v.4h-2.1l2.1-1v.4c-.1.1 0 .2 0 .2zm-1.1 6.2l.7-.6.4-.2v.8h-1.1zm-.2-4.7l-.8.5v-.7h1.1l-.3.2zm.3 2.8h-1.1v-.8l.4.3.7.5zm-1.1.8h1.1l-.3.3-.7.4v-.7zm1.4-1.7l-.4-.3h1.1v.7l-.7-.4zm-.4-1.1l.7-.6.4-.2v.8h-1.1zm13.5 20.1l-8.5 10.9-.2.2v-6.6l-.5-1.7-.5-2.3-.1.2.1-.9h.1l9.6.2zm-8.1-5v-.9h2.6v2.4h-2.6v-1.5zm34.8-15.9h1.4v1.2l-1.4.3h-3.1v-1c0-.1 0-.2-.1-.2 0 0-.1-.1-.2-.1v-.2h3.4zm-3.1 17.1s-.1-.1 0 0h-1.8v-2.1h2.6v2.3h-.4c0-.1-.1-.2-.2-.2h-.2zm2.5.2v-2.3h2.6v2.3h-2.6zm-29.1-2.3h1.7v2.1h-2c-.1 0-.2.1-.2.2h-.4v-2.4h.9zm4.3 2h-.9v-2.1h2.6v2H35zm9.6.4h-1.2c-.2 0-.3.1-.3.3v.7h-.3V61l.1-.6h2.3v3.4h-.3v-.7c0-.1-.2-.2-.3-.2zm6.6-.8v-1.6h2.6V62c-.1-.1-.1-.1-.2-.1h-2.1c-.1 0-.2.1-.3.2zm-25.8-10zm-3.3-3.8v-1.1h.5v1.1h-.5zm.5.8v1.1h-.5v-1.1h.5zm-.5-2.8v-1.1h.5v1.1h-.5zm0-2v-.8h.5v.8h-.5zm32.4-20.4c0 .1 0 .2.1.2v.6h-.8v-1.5l.7.7zm-9.6 6.9h.4v1.9l-.5-.9-.5-.9h.6zm0-3v-1.2h.3v1.9l-.1-.1-.2-.6zm.4-7.7l-.1-.2-.3-.6v-1.5h.4v2.3zm-.2 2.5h.2v1.8l-.1-.2-.4-.8-.4-.8h.7zm-2.9 1.5l-.2-.9v-.6h.4v1.1l-.2.4zm.2 3.8l-.4.6v-1.8h.1l.3 1.2zm-.4 4.7s.1 0 0 0v-1.8h.4V32l-.4.6zm1.2-13.2v1.2h-.5l.5-1.2zm0-8.5h-.5l.5-1.1v1.1zm-.2 6.8l-.1.2-.9 2.2v-2.4h1zm11.4 68.2h-21l-8.6-1.3v-.3l.1-2.9 7.1-6.1 9.8-8.4-.6.5-.5.6-.6.5c-.1.1-.1.2-.1.3 0 .1.1.2.1.2.1 0 .1.1.2.1s.1 0 .2-.1l.6-.5.5-.4.3-.2.5-.4.1-.1.1.2.8.1-.7.6.3-.3h.2l.6-.1h.1l.5.1.3.1.2.1.1.1-.6-.5 1 .1L63.5 84v1l-9.1.9zm2.8-74.5l-.8-.9-.1-.1-.2-.2 1.2-1.3v2.5zM56 6.5l.5.5H56v-.5zM55.8 28l-.6-.5v-.8h.5l.1 1.3zm-.1-8.8l-.4-.4v-1.1h.4v1.5zM54.6 5.6v-.3l.8.7h-.8v-.4zm-.8 9v-.8l.8.9v.4c0 .1 0 .2.1.2v.6h-.9v-1.3zm-7-10.7h.3c.1 0 .2.1.3.1.1 0 .2 0 .2-.1h1.6c.1 0 .3.1.3.1.1 0 .2 0 .2-.1h1.6c.2 0 .3.1.4.1s.2 0 .2-.1h.3l-.4.4h-.4l-.3.1-.1-.1c-.1 0-.3 0-.4.1H48c-.1-.1-.2-.1-.3-.1-.1 0-.1 0-.1.1l-.3-.1H47l-.2-.4zm-1.5 9.4v2l-.1-.2-.9-2.2h1v.4zm-.4-9.4v.2l-.3.5-.7 1.4h-.6l-.9-2v-.2h2.5zM42 8.1h1l-1 2.4V8.1zm0 5.2v-.4h.4v1.5l-.4.9v-2zm-1-8.5V6h-.8l.8-1.2zm-4.8-.9h.3c.2 0 .3.1.4.1s.2 0 .2-.1h1c.1 0 .2.1.3.1.1 0 .2 0 .2-.1h1c.1 0 .2.1.3.1.1 0 .2 0 .2-.1h.5L39.1 6h-1.5l-.1-.1-1.5-2h.2zm-.5.9l.9 1.2h-.8V4.8zm-1.5 9.4l.5-.6v2.1h-.5v-1.5zm0 9.5l.5-.4-.1 1.5h-.4v-1.1zm-.3-18.4v.2c0 .1 0 .1.1.2V6h-.8l.7-.7zm-1.1 12.4h.8v.7l-.9 1 .1-1.7zm-.1 9h.9v.5l-.9.9v-1.4zm-.1-20.2V7h-.5l.5-.5zm-1.3 2.3l.9 1v.5l-.9 1V8.8zm0 4.5V13l.2-.1h.7v2.3l-.9 1v-2.9c0 .1 0 .1 0 0 0 .1 0 0 0 0zm16.4 61c.1 0 .1 0 0 0z"/><path class="st0" d="M22 41.6c.1.1.1 0 0 0zm25.4 25.5h.1-.1z"/></svg>