<svg id="static" xmlns="http://www.w3.org/2000/svg" viewBox="0 0 1059.08 1059.08"><defs><style>.cls-1,.cls-3{fill:none;stroke-miterlimit:10}.cls-1{stroke:#fff;stroke-width:2px}.cls-2,.cls-4{fill:#fff}.cls-2{opacity:.4}.cls-3{stroke:#fdba12}</style></defs><title>reticle-static</title><circle class="cls-1" cx="529.54" cy="529.54" r="528.4" transform="rotate(-71.3 530.06 528.033)"/><path class="cls-2" d="M268.51 127.14a482.31 482.31 0 1 0 177.22-71 479.15 479.15 0 0 0-177.22 71zm360.65-34.07A444.83 444.83 0 0 1 786 161.47l-17.38 25.22c91.42 63 152.84 157.84 172.93 267A415.16 415.16 0 0 1 889 743l26.23 15.77q-7.15 11.87-15 23.38a447.91 447.91 0 0 1-56 66.48l-21.41-21.94A413.63 413.63 0 0 1 608 937.75a421.46 421.46 0 0 1-51.77 6.25l1.77 30.6a446.17 446.17 0 0 1-392.73-698.9A446.79 446.79 0 0 1 629.16 93.07z"/><circle class="cls-3" cx="969.66" cy="433.5" r="19.9" transform="rotate(-3.9 970.449 433.833)"/><path class="cls-4" d="M813.1 186.33a3.47 3.47 0 0 0 2.79-1.38 6.07 6.07 0 0 0 .71-3.82 10.26 10.26 0 0 1-3.57 1q-3.75.26-4-3.25a3.83 3.83 0 0 1 .88-2.93 3.93 3.93 0 0 1 2.8-1.25 3.4 3.4 0 0 1 3.22 1.41 9.08 9.08 0 0 1 1.33 4.65 7 7 0 0 1-.83 4.54 4.16 4.16 0 0 1-3.3 1.6 21.2 21.2 0 0 1-2.63 0h-.43v-.6a24.71 24.71 0 0 0 3.03.03zm-.07-4.77a7.44 7.44 0 0 0 1.52-.3 12.12 12.12 0 0 0 1.47-.52l.56-.24q-.49-5.38-3.82-5.15a3.2 3.2 0 0 0-2.33 1.06 3.3 3.3 0 0 0-.72 2.47 2.82 2.82 0 0 0 .92 2.15 3.42 3.42 0 0 0 2.37.53zm23.53 13.77a5.77 5.77 0 0 1 3.17.51A2.48 2.48 0 0 1 841 198a2.59 2.59 0 0 1-.47 1.85 3.92 3.92 0 0 1-1.78 1.13 4.36 4.36 0 0 1 2 .92 2.71 2.71 0 0 1 .82 1.94 2.86 2.86 0 0 1-1 2.7 5.93 5.93 0 0 1-3.14 1 6.13 6.13 0 0 1-3.27-.53 2.64 2.64 0 0 1-1.39-2.35 3 3 0 0 1 .46-2.09 4.87 4.87 0 0 1 1.74-1.31 3.86 3.86 0 0 1-1.74-.93 2.67 2.67 0 0 1-.68-1.76q-.17-2.96 4.01-3.24zm3.75 2.63a1.86 1.86 0 0 0-1-1.64 6.57 6.57 0 0 0-5.25.34 1.85 1.85 0 0 0-.78 1.77 2.4 2.4 0 0 0 .68 1.7 4 4 0 0 0 1.85.79l2.1-.14a4.35 4.35 0 0 0 1.9-1 2.25 2.25 0 0 0 .5-1.78zm-3 9a5.29 5.29 0 0 0 2.71-.8 2.31 2.31 0 0 0 .85-2.21 2.15 2.15 0 0 0-1-1.88 4.08 4.08 0 0 0-.89-.4c-.28-.08-.66-.17-1.12-.26l-2.1.14a3.9 3.9 0 0 0-1.83 1.08 2.66 2.66 0 0 0-.51 2q.25 2.53 3.93 2.28zm17.61 11.16v-.61l7.22-.49.08 1.17-4.07 11.18-.65-.21 4-11.06v-.41zm27.16 22.58a28.48 28.48 0 0 0-3.13.05 3.13 3.13 0 0 0-2.53 1.44 6.11 6.11 0 0 0-.73 3.78l.49-.25a14.46 14.46 0 0 1 1.35-.52 6.32 6.32 0 0 1 1.55-.33q3.92-.27 4.16 3.29a3.87 3.87 0 0 1-.84 2.94 4.08 4.08 0 0 1-2.92 1.23q-4 .27-4.45-5.94a7.19 7.19 0 0 1 .86-4.57 3.93 3.93 0 0 1 3.15-1.69q1.33-.09 2.63-.05h.43zm-3 4.78a6.63 6.63 0 0 0-1.58.33 9.25 9.25 0 0 0-1.34.52l-.47.27q.45 5.35 3.72 5.12a3.4 3.4 0 0 0 2.43-1 3.21 3.21 0 0 0 .69-2.44 2.85 2.85 0 0 0-1-2.21 3.57 3.57 0 0 0-2.43-.59zm21.65 19.26v.65l-6.07.41v4.74a7 7 0 0 1 1.5-.74 5.92 5.92 0 0 1 1.65-.39q3.74-.25 4 3.19a4.13 4.13 0 0 1-.82 3.12 3.92 3.92 0 0 1-2.81 1.22 16.34 16.34 0 0 1-3.24-.1l-.55-.07v-.62a16.91 16.91 0 0 0 3.59.19 3.29 3.29 0 0 0 2.4-1.06 3.52 3.52 0 0 0 .7-2.63q-.19-2.84-3.26-2.63a5 5 0 0 0-1.5.36 6.82 6.82 0 0 0-1.21.59l-.43.26h-.62l-.07-6zm16.6 38.17l-.17-2.55-6.23.43v-.54l3.08-9h.7l-3 8.94 5.46-.37-.27-3.93h.65l.27 3.93 1.76-.12v.61l-1.76.12.17 2.55zm8.67 15.4a15.78 15.78 0 0 1 3.53-.64 4.09 4.09 0 0 1 2.72.53 2.83 2.83 0 0 1 1 2.2 3 3 0 0 1-.13 1.15 2.26 2.26 0 0 1-.44.82 3.81 3.81 0 0 1-.56.52 1.77 1.77 0 0 1-.71.37 3.6 3.6 0 0 1 1.83.83 3.33 3.33 0 0 1 .76 2.22q.22 3.29-3.51 3.54a19.9 19.9 0 0 1-3.38-.08l-.55-.07.07-.62a17.64 17.64 0 0 0 3.82.16q3-.23 2.86-3a2.47 2.47 0 0 0-.92-2 3.75 3.75 0 0 0-2.17-.53l-2.41.16v-.61l2.39-.16a2.81 2.81 0 0 0 1.69-.78 2.27 2.27 0 0 0 .72-2 2.18 2.18 0 0 0-.76-1.72 3.54 3.54 0 0 0-2.25-.38 14.57 14.57 0 0 0-2.94.49l-.44.14zm21.39 38.83l-7.51.51v-.56l3.78-4.62q.82-1 1.2-1.51a5.24 5.24 0 0 0 .66-1.25 3.46 3.46 0 0 0 .23-1.48 2.19 2.19 0 0 0-.87-1.82 3.8 3.8 0 0 0-2.31-.4 12.59 12.59 0 0 0-2.71.53l-.49.16-.13-.61a12.75 12.75 0 0 1 3.39-.7 4.39 4.39 0 0 1 2.72.52 2.75 2.75 0 0 1 1.08 2.27 4 4 0 0 1-.4 2.13 13.24 13.24 0 0 1-1.66 2.32l-3.65 4.37 6.63-.45zm8.17 16.49l.81 11.85h-.65l-.72-11.1-3.2 2.49-.34-.5 3.5-2.69zm12.2 54.44a4.91 4.91 0 0 1 1.74-.4 5 5 0 0 1 1.79.16 3 3 0 0 1 1.35.89q1.17 1.25 1.43 5 .23 3.34-.8 4.71a3.2 3.2 0 0 1-1.22 1 4.86 4.86 0 0 1-1.71.4 5 5 0 0 1-1.75-.15 3.18 3.18 0 0 1-1.35-.81q-1.22-1.2-1.45-4.57-.26-3.75.75-5.19a3.17 3.17 0 0 1 1.22-1.04zm5 2.21a3.06 3.06 0 0 0-1.24-1.67 3.56 3.56 0 0 0-2-.33 3.52 3.52 0 0 0-1.9.6q-1.46 1.08-1.16 5.42.21 3.07 1.22 4.12a2.58 2.58 0 0 0 1.12.71 4.72 4.72 0 0 0 1.62.11 3.46 3.46 0 0 0 1.7-.52 2.83 2.83 0 0 0 1-1.66 10.14 10.14 0 0 0 .2-3.37 12.06 12.06 0 0 0-.57-3.41zm7.06 53.11l.81 11.85h-.65l-.76-11.15-3.2 2.49-.34-.5 3.5-2.69zm4.8 41.61l-7.51.51v-.56l3.78-4.62q.82-1 1.2-1.51a5.24 5.24 0 0 0 .66-1.25 3.43 3.43 0 0 0 .23-1.48 2.19 2.19 0 0 0-.87-1.82 3.81 3.81 0 0 0-2.31-.4 12.6 12.6 0 0 0-2.71.53l-.49.16-.13-.61a12.76 12.76 0 0 1 3.39-.7 4.39 4.39 0 0 1 2.72.52 2.75 2.75 0 0 1 1.08 2.27 4 4 0 0 1-.4 2.13 13.28 13.28 0 0 1-1.66 2.32l-3.6 4.38 6.63-.45zm-8.36 19.94a15.74 15.74 0 0 1 3.53-.64 4.08 4.08 0 0 1 2.72.53 2.82 2.82 0 0 1 1 2.2 3 3 0 0 1-.13 1.15 2.27 2.27 0 0 1-.44.82 3.93 3.93 0 0 1-.56.52 1.77 1.77 0 0 1-.71.37 3.61 3.61 0 0 1 1.83.83 3.33 3.33 0 0 1 .76 2.22q.22 3.29-3.51 3.54a19.7 19.7 0 0 1-3.38-.08l-.55-.07.07-.62a17.64 17.64 0 0 0 3.82.15q3.05-.23 2.86-3a2.47 2.47 0 0 0-.92-2 3.75 3.75 0 0 0-2.17-.53l-2.41.16v-.61l2.39-.16a2.82 2.82 0 0 0 1.69-.78 2.27 2.27 0 0 0 .72-2 2.18 2.18 0 0 0-.76-1.72 3.55 3.55 0 0 0-2.25-.38 14.64 14.64 0 0 0-2.94.49l-.44.14zm3.99 42.5l-.17-2.55-6.23.42v-.54l3.08-9h.7l-3 8.94 5.46-.37-.27-3.93h.65l.27 3.93 1.76-.12v.61l-1.76.12.17 2.55zm-3.74 18.36v.65l-6.07.41v4.75a7 7 0 0 1 1.5-.74 5.94 5.94 0 0 1 1.65-.39q3.74-.25 4 3.19a4.13 4.13 0 0 1-.83 3.12A3.92 3.92 0 0 1 974 618a16.39 16.39 0 0 1-3.24-.1l-.55-.07v-.62a16.94 16.94 0 0 0 3.58.19 3.3 3.3 0 0 0 2.4-1.07 3.53 3.53 0 0 0 .71-2.63q-.19-2.84-3.26-2.63a5.08 5.08 0 0 0-1.5.35 6.83 6.83 0 0 0-1.21.59l-.43.26h-.62l-.07-6zm-6.46 31.06a28.48 28.48 0 0 0-3.13.05 3.13 3.13 0 0 0-2.53 1.44 6.11 6.11 0 0 0-.73 3.78l.49-.25a14.21 14.21 0 0 1 1.35-.52 6.25 6.25 0 0 1 1.55-.33q3.91-.27 4.16 3.29a3.87 3.87 0 0 1-.84 2.94 4.07 4.07 0 0 1-2.92 1.23q-4 .28-4.45-5.94a7.17 7.17 0 0 1 .86-4.57 3.92 3.92 0 0 1 3.14-1.68q1.33-.09 2.63-.05h.43zm-3 4.79a6.59 6.59 0 0 0-1.58.33 9.17 9.17 0 0 0-1.33.52l-.47.27q.45 5.35 3.72 5.12a3.39 3.39 0 0 0 2.43-1 3.2 3.2 0 0 0 .69-2.44 2.85 2.85 0 0 0-1-2.21 3.57 3.57 0 0 0-2.43-.59zM954.5 667v-.61l7.22-.49.08 1.17-4.07 11.17-.73-.24 4-11.06v-.41zm-7.24 28.14a5.76 5.76 0 0 1 3.17.51 2.48 2.48 0 0 1 1.28 2.16 2.59 2.59 0 0 1-.47 1.85 3.93 3.93 0 0 1-1.78 1.13 4.35 4.35 0 0 1 2 .92 2.72 2.72 0 0 1 .82 1.94 2.86 2.86 0 0 1-1 2.7 5.93 5.93 0 0 1-3.14 1 6.12 6.12 0 0 1-3.26-.53 2.64 2.64 0 0 1-1.39-2.35 3 3 0 0 1 .46-2.09 4.86 4.86 0 0 1 1.74-1.31 3.86 3.86 0 0 1-1.74-.93 2.67 2.67 0 0 1-.68-1.76q-.19-2.96 3.99-3.24zm3.75 2.63a1.86 1.86 0 0 0-1-1.64 6.56 6.56 0 0 0-5.25.34 1.84 1.84 0 0 0-.78 1.77 2.4 2.4 0 0 0 .68 1.7 4 4 0 0 0 1.85.79l2.1-.14a4.33 4.33 0 0 0 1.9-1 2.25 2.25 0 0 0 .49-1.82zm-3 9a5.29 5.29 0 0 0 2.71-.8 2.31 2.31 0 0 0 .85-2.21 2.15 2.15 0 0 0-1-1.88 4.12 4.12 0 0 0-.89-.4c-.28-.08-.66-.17-1.12-.26l-2.1.14a3.92 3.92 0 0 0-1.83 1.08 2.67 2.67 0 0 0-.5 2q.24 2.56 3.92 2.28zm-13.33 28.68a3.47 3.47 0 0 0 2.79-1.38 6.06 6.06 0 0 0 .71-3.82 10.28 10.28 0 0 1-3.57 1q-3.75.26-4-3.25a3.84 3.84 0 0 1 .88-2.93 3.94 3.94 0 0 1 2.8-1.25 3.4 3.4 0 0 1 3.22 1.41 9.08 9.08 0 0 1 1.33 4.65 7 7 0 0 1-.83 4.54 4.16 4.16 0 0 1-3.3 1.6 21 21 0 0 1-2.63 0h-.43v-.6a24.51 24.51 0 0 0 3.03.03zm-.07-4.78a7.43 7.43 0 0 0 1.52-.3 12 12 0 0 0 1.47-.51l.56-.24q-.49-5.38-3.82-5.15a3.2 3.2 0 0 0-2.33 1.06 3.3 3.3 0 0 0-.71 2.47 2.82 2.82 0 0 0 .92 2.15 3.42 3.42 0 0 0 2.38.52zM557.4 967.44l-.95-13.96.32-.02.81 13.97-.18.01zm-22.45.72l-.12-14h1l.12 14zm-10.21-.06h-1l.29-14h1zm21.39-.16l-.45-14h1l.49 14zm-32.6-.18h-1l.61-14h1zm-11.17-.62l-1-.07.92-14 1 .07zm-11.17-.91l-.93-.09 1.25-13.94 1 .09zM480 965l-1-.12 1.67-13.9 1 .12zm-11.15-1.49l-1-.15 2.08-13.85 1 .14zm-11.1-1.78l-1-.17 2.4-13.79 1 .17zm-11-2.06l-1-.2 2.78-13.72 1 .19zm-11-2.35l-1-.23 3.14-13.64 1 .22zm-10.93-2.63l-1-.25 3.46-13.56 1 .25zM414 951.82l-1-.28 3.84-13.46.95.27zm-10.75-3.18l-1-.3L406.4 935l.94.29zm-10.69-3.46l-1-.33 4.5-13.26.95.32zM382 941.46l-1-.36 4.85-13.1.92.34zm-10.48-4l-1-.38 5.18-13 .92.36zm-10.42-4.26l-.94-.4 5.52-12.87.91.39zm-10.26-4.52l-.94-.43 5.85-12.72.89.41zm-10.15-4.78l-.93-.45 6.18-12.56.88.43zm-10-5l-.9-.47 6.46-12.43.88.46zm-9.87-5.28l-.91-.5 6.81-12.23.84.47zm-9.77-5.62l-.88-.52 7.11-12.06.85.5zm-9.59-5.78l-.88-.55 7.42-11.83.82.51zm-9.46-6l-.85-.56 7.72-11.66.83.54zm-9.28-6.22l-.82-.57 8-11.5.82.57zm-9.12-6.49l-.82-.6 8.29-11.28.8.58zm-9-6.72l-.8-.62 8.57-11.07.78.6zm-8.78-6.94l-.79-.64 8.85-10.85.76.62zm-8.6-7.16l-.79-.68 9.15-10.59.73.62zm-8.41-7.37l-.76-.69 9.39-10.38.72.65zm-8.23-7.6l-.74-.7 9.65-10.14.71.68zm-8-7.79l-.73-.73 9.92-9.88.69.69zm-7.82-8l-.71-.75 10.16-9.63.67.7zm-7.62-8.2l-.67-.74 10.38-9.39.67.74zm-7.4-8.37l-.66-.77 10.63-9.11.64.75zm-7.19-8.56l-.65-.8 10.87-8.82.61.75zm-7-8.74l-.63-.81 11.08-8.59.59.77zm-6.75-8.92l-.6-.82 11.3-8.26.58.79zm-6.47-9.14l-.58-.83 11.51-8 .56.81zm-6.27-9.23l-.56-.86 11.71-7.68.53.81zm-6-9.41l-.53-.86 11.89-7.38.52.84zm-5.78-9.54l-.52-.88 12.08-7.07.49.84zm-5.56-9.73l-.5-.9 12.27-6.75.47.85zm-5.31-9.87l-.47-.9 12.42-6.46.46.88zm-5.06-10l-.45-.92 12.59-6.11.43.88zm-4.8-10.13l-.42-.92 12.74-5.8.41.9zM129 701.86l-.39-.92 12.88-5.48.39.92zm-4.27-10.35l-.37-.94 13-5.14.37.93zm-4-10.46l-.35-1 13.16-4.78.34.92zM117 670.49l-.33-1 13.27-4.45.31.93zm-3.46-10.65l-.3-1 13.38-4.13.29.94zm-3.19-10.75l-.27-1 13.47-3.8.27 1zm-2.91-10.81l-.25-1 13.57-3.43.24.95zm-2.64-10.89l-.23-1 13.66-3.08.22 1zm-2.36-10.92l-.2-1 13.73-2.75.2 1zm-2.09-11l-.18-1 13.79-2.41.17 1zm-1.84-11.07l-.15-1 13.84-2.09.15 1zM97 583.32l-.13-1 13.89-1.72.12 1zm-1.26-11.14l-.1-1 13.93-1.35.1 1zm-1-11.17l-.07-1 14-1 .07 1zm-.69-11.17v-1l14-.65v1zm-.4-11.2v-1l14-.29v1zm13.88-11.17h-14v-1h14zm.16-10.84l-14-.41v-1l14 .41zm.44-10.85l-14-.74.05-1 14 .75zm.72-10.82l-14-1.1.08-1 14 1.1zm1-10.83l-13.92-1.47.11-1 13.96 1.48zm1.28-10.8l-13.88-1.83.14-1 13.87 1.87zm1.56-10.76l-13.83-2.2.16-1 13.83 2.2zm1.84-10.73l-13.77-2.53.19-1 13.76 2.57zm2.11-10.66L103 438.27l.21-1 13.69 2.94zm2.38-10.6l-13.62-3.26.24-1 13.61 3.27zM121.7 420l-13.53-3.59.26-1 13.52 3.63zm2.92-10.46l-13.43-4 .28-1 13.43 4zm3.2-10.39l-13.33-4.29.32-1 13.31 4.33zm3.46-10.3l-13.22-4.62.34-1 13.2 4.66zm3.72-10.19l-13.1-4.95.36-1 13.08 5zm4-10.09l-13-5.31.38-.93 13 5.31zm4.23-10l-12.81-5.64.4-.92 12.81 5.64zm4.49-9.9L135 342.73l.44-.93 12.66 6zm4.73-9.76l-12.52-6.26.46-.91 12.47 6.26zm5-9.64L145 322.68l.48-.9 12.34 6.62zm5.22-9.51l-12.18-6.91.5-.88 12.17 6.92zm5.47-9.38l-12-7.2.53-.87 12 7.23zm5.7-9.24L162 293.65l.55-.87 11.8 7.53zm5.92-9.07l-11.62-7.81.56-.84 11.61 7.82zm6.16-8.93L174.46 275l.58-.82 11.41 8.11zm6.38-8.77L181 266l.6-.81 11.2 8.4zm6.6-8.6l-11-8.68.63-.79 11 8.69zm6.82-8.44l-10.78-8.93.66-.79 10.75 9zm7-8.25l-10.54-9.21.67-.76 10.53 9.23zm7.23-8.07l-10.31-9.47.71-.77 10.25 9.54zm7.43-7.89l-10.07-9.72.72-.74 10 9.77zm7.62-7.68l-9.81-10 .73-.71 9.79 10zm7.83-7.5l-9.57-10.22.75-.7 9.53 10.25zm8-7.29l-9.3-10.47.77-.68 9.24 10.5zm8.19-7.08l-9-10.7.79-.66 9 10.74zm8.36-6.87l-8.75-10.93.8-.64 8.72 11zm8.53-6.65l-8.45-11.16.8-.61 8.44 11.17zm8.7-6.43l-8.17-11.37.82-.59L285.4 183zm8.86-6.21l-7.88-11.57.84-.57 7.85 11.59zm471.62-4.52l-.82-.54 7.63-11.74.86.56zm-462.6-1.46l-7.59-11.76.86-.55 7.54 11.79zm453.45-4.35l-.84-.52 7.32-11.94.87.54zm-444.32-1.38l-7.28-12 .86-.52 7.26 12zm435-4.2l-.84-.49 7-12.11.89.52zm-425.68-1.3l-7-12.14.88-.5 7 12.15zm416.25-4l-.87-.48L743 143.4l.89.49zm-406.78-1.24l-6.65-12.32.9-.48 6.62 12.34zm397.2-3.86l-.88-.46 6.41-12.45.9.46zM340 149.88l-6.34-12.48.91-.46 6.31 12.5zm377.88-3.68l-.89-.43 6.08-12.61.92.44zm-368.15-1.1l-6-12.64.92-.44 6 12.66zm358.33-3.5l-.89-.4 5.75-12.77.94.42zm-348.48-1l-5.68-12.79.92-.41 5.67 12.8zm338.55-3.32l-.9-.38 5.41-12.91.95.4zm-328.58-1l-5.36-12.93.94-.39 5.33 12.95zm318.54-3.14l-.92-.36 5.09-13 1 .37zm-308.46-.88l-5-13.06 1-.37 5 13.09zm298.32-3L677 129l4.76-13.17 1 .35zm-288.16-.8l-4.69-13.16 1-.34 4.66 13.2zm277.91-2.79l-.93-.31 4.41-13.29 1 .32zM400.06 125l-4.36-13.3 1-.32 4.3 13.32zm257.33-2.6l-1-.29 4.08-13.39 1 .29zm-247-.64l-4-13.41 1-.29 4 13.42zM647 119.33l-1-.27 3.74-13.49 1 .27zm-226.13-.56l-3.66-13.51 1-.27 3.63 13.52zm215.65-2.23l-1-.24 3.4-13.58 1 .25zm-205.13-.48L428 102.47l1-.24 3.28 13.61zm194.58-2l-1-.22 3-13.66 1 .22zm-184-.41l-3-13.68 1-.21 3 13.68zm173.4-1.84l-1-.19L617 97.85l1 .19zm-162.78-.33l-2.71-13.78 1-.19 2.63 13.75zm152.1-1.64l-1-.17L606 95.84l1 .17zm-141.42-.27l-2.29-13.81 1-.17 2.27 13.81zm130.71-1.42l-1-.14 2-13.86 1 .14zm-120-.22L472 94l1-.14 1.94 13.87zm109.21-1.2l-1-.11 1.61-13.91 1 .12zm-98.45-.17l-1.6-13.91 1-.11 1.57 13.91zm87.66-1l-1-.09 1.27-13.94 1 .09zm-76.86-.13l-1.25-13.94 1-.09 1.23 13.95zm66-.74l-1-.06.9-14 1 .07zm-55.22-.09l-.88-14 1-.06.86 14zm44.39-.5h-1l.55-14h1zm-33.57-.1l-.53-14h1l.51 14zm22.7-.26h-1l.18-14h1zm-11.85 0l-.18-14h1l.14 14zm245.99 75.13l-.36-.24 7.87-11.58.46.31-7.97 11.51z"/><path class="cls-4" transform="rotate(-58.92 903.09 751.75)" d="M902.79 744.74h.5v14h-.5z"/><path class="cls-4" d="M846.84 835.9l-10-9.78.68-.7 10.06 9.74zm7.78-8.19l-10.26-9.53.67-.72 10.3 9.49zm7.58-8.39l-10.51-9.25.65-.74 10.55 9.21zm7.37-8.59l-10.75-9 .65-.78 10.75 9zm7.13-8.73l-11-8.72.61-.77 11 8.68zm6.92-9l-11.18-8.43.6-.8 11.2 8.4zm6.69-9.13l-11.41-8.12.58-.82 11.42 8.1zm6.44-9.28l-11.61-7.83.55-.82 11.64 7.79zm6.2-9.45l-11.8-7.54.53-.84 11.81 7.51zm-63.73 78.38l-9.78-10.01.33-.33 9.82 9.98-.37.36z"/></svg>