<svg id="clockwise" xmlns="http://www.w3.org/2000/svg" viewBox="0 0 1059.08 1059.08"><defs><style>.cls-1{fill:#fff;opacity:.5}</style></defs><title>reticle-inner</title><path id="inner-ring" class="cls-1" d="M918.31 460.31a396.6 396.6 0 1 0-4.08 156.92 394 394 0 0 0 4.08-156.92zM848 759.11a395.1 395.1 0 0 1-165.19 131.82L663.23 845a343.45 343.45 0 0 1-410.9-112.52L212.09 762q-8.6-11.71-16.39-24.12a393.57 393.57 0 0 1 198.77-578.62l17.11 46.93a343.65 343.65 0 0 1 362.88 82.67L810.21 254A393.77 393.77 0 0 1 848 759.11z"/></svg>