<svg id="Layer_1" xmlns="http://www.w3.org/2000/svg" viewBox="0 0 74.3 44.5"><style>.st0{fill:#fff}</style><path class="st0" d="M59.5 40.7c0-.1-.1 0 0 0-.1-.1-.1-.1 0 0l-1.2-.1v.1h.1l.1.1h-.2l.1 1.2s0 .1.1.1h.5v-.3h.4v-.5h-.1V41h.1s.1 0 .1-.1v-.2c-.1.1-.1.1 0 0-.1.1-.1.1 0 0 0 .1 0 0 0 0zm-.4 1v-.3h.1v.2h-.1v.1zm-.7.4l-.1-1 .3-.1.1.5v.6h-.3zm.5-.6l-.1-.6h.1v.9-.3zM42 23.6s.1-.1 0 0zm-1.1-6.1l.6-.6v-.1h-.1l-.8.7-.1.1.1.1h-.1l.1.1.3-.3zm-5.3-2.9c-.1-.1-.1 0 0 0zm1.6-6.1c-.1-.1-.1 0 0 0zm30.6 32.2c0-.1-.1 0 0 0-.1-.1-.1-.1 0 0l-1.1-.1h-.1v.1h.1l.1.1h-.2l.1 1.2s0 .1.1.1h.6v-.3h.3v-.1h.2v-.6h-.1v-.3h.1s.1 0 .1-.1h-.2c-.1.1-.1.1 0 0-.1.1-.1.1 0 0 0 .1 0 0 0 0zm-1.1 1.4l-.1-1 .3-.1.1.5v.6h-.3zm.8-.4h-.1v-.3.1h.1v.2zm-.3-.2l-.1-.6h.1v.9-.3zM8 40.6h-.9v-.1s0-.1-.1-.1-.1 0-.1.1v.2s0 .1.1.1h-.1L7 42s0 .1.1.1h.5v-.3H8v-.5h-.2V41h.3s.1 0 .1-.1v-.1c0-.2-.1-.3-.2-.2.1-.1 0 0 0 0zm-.2.8s0 .1 0 0c.1.1.1.1 0 0 .1.1.1.1 0 0l.1.1v.2h-.1v-.3zm-.7.7l-.1-1 .3-.1.1.6v.5h-.3zm.5-.5l-.1-.7h.1v.9-.2zm33.7-29.5z"/><path class="st0" d="M73.3 27.7H73l-.2-.2v-.1l-.1-.1v.1h-.1v.1l-5.2-.1v-.2h-.1l-.3.2v-.1h-.2l-.1.1v.1H66v-.1s0-.1-.1-.1c0 0-.1 0-.1.1l-.2.1-.2.2v.1h-.2l-.5-.4v-.2s0-.1-.1-.1h-.2l-.1-.2h.3s.1 0 .1-.1v-.1s0-.1-.1-.1h.1v-.2l.1-.1.1-.1v-.5l-.2-.2-.2-.1h-.1l-.1-.1h-.1l-.1.1h-.2l-.2.1-.1.2-.1.2v.1l.1.3.1.1v.2h-.2l-.1-.1h-.1l-.1.1H63l-.2.1v-1l.4-.4h.5s.1 0 .1-.1v-.4s0-.1-.1-.1h-.8v-.2l.4-.4h.5s.1 0 .1-.1v-.4s0-.1-.1-.1H63v-.8l.4-.4h.4s.1 0 .1-.1v-.4s0-.1-.1-.1H62s-.1 0-.1.1v.4l.3.3-.8 4.5h-2.7s-.1 0-.1.1v.5h.2l.7.2v.4H59s-.1 0-.1.1v.4h.2v.5H59s0-.1-.1-.1H58v-.7c0-.1-.1-.1-.1-.1l-1.1.1v-.2l.1-1.1 3.1-6.3h.1v-.2l.6-1.1.4-.6 1.2.6 1.6.8 1.6 1h.1v.4s0 .1.1.1c0 0 0 .1.1.1 0 0 .1 0 .1-.1 0 0 .1 0 .1-.1v-.8.1-.1s0-.1-.1-.1h-.1l-4.1-3.1v-.1c0-.1-.1-.1-.1-.1h-.1l-.1-.1h-.2l-.5.4s-.1 0-.1.1h-.1c-.1 0-.1.1-.1.2v.3l-.1.1-.2.3H60v.1l-.2.3h-.1v.1l-.2.3s0 .1-.1.1l-.1.1v.1h-.2l-1.3 2.2-.6 1.1h-.1v.1l-.2.3-.2.4v.1c-.1 0-.1.1-.1.2l-.3.6h-.1v.2l-.1.1h-1.2v1.1h-.1s-.1 0-.1.1v.3h.6v1.1l-.1 1.2c-.1 0-.1 0-.2.1v.4h-.4v-.4s0-.1-.1-.1c0 0-.1 0-.1.1v.4H54V29s0-.1-.1-.1c0 0-.1 0-.1.1v.4h-.5V29s0-.1-.1-.1-.1 0-.1.1v.4h-.5V29s0-.1-.1-.1-.1 0-.1.1v.4h-.3l-.2-.4v-.3l-.4-1.3V27h-.6v.5l-.1.3h-.2l-.1-.1s0-.1-.1-.1h-.8s-.1 0-.1.1v-.6h-.2v.5l-.1.2h-3.9v-.7h.1l.4-.6 5.1-6.1c0-.1-.1-.1-.1-.1l.2 1v.2l-.2-1 .2 1.1v.6l.2 2.7c-.1.1-.1.3 0 .5 0 0 .1 0 .1.1h.2v.8h.3V26s0-.1-.1-.1v-.3l.3-.1c.1 0 .1-.1.2-.1v-.3c0-.1-.1-.1-.1-.1s0-.1-.1-.1h-.2V21h.2v-.1l-.1-.1v-.4h.2l.1-.1c.1-.1.1-.2.1-.3l-.1-.1c-.1-.1-.2-.1-.2-.1v-.4c0-.1-.1-.1-.1-.1L51 19h-.1l-.1-.3c.1-.1.1-.2 0-.3 0-.1-.1-.2-.2-.2l-.1-.2h-.1l-.2.3-.2.3v.1l.2.1-.1-.1h-.2l.1.2-.2.3h-.1v.1l-.2.2h-.1v.1l-.3.3H49l-.5.5-.2.3h-.1v.1l-.2.4-.2.3h-.1v.1l-.2.2-.3.2v.1l-.3.3-.2.3h-.1l-.3.3h-.1v.1l-.8.9-.2.3h-.1v.1l-.1.2c-.1 0-.1 0-.1.1h-.1v.1h-.1v.1l-.1.1-.1.2h-.1v.1l-.1.1h-.1v.1l-.2.3h-.3v-.1c-.2-.3-.7-.4-1-.2-.1 0-.1.1-.2.1 0 0 0 .1-.1.1v.1h-.1s-.1 0-.1.1v.2s-.1 0-.1.1v.1h-.2s.1 0 .1-.1c0 0 0-.1-.1-.1l.1-2.5.1-.2c0-.1 0-.1-.1-.1 0-.1 0-.1-.1-.1L42 22c0-.1 0-.1-.1-.1l.1-2.1h.5c.1-.2.1-.2 0-.2l.1-1.6v-.1s0-.1-.1-.1h-.6L42 15v-.1l.1-.4v-.1c0-.1 0-.1-.1-.1v-.1c-.1 0-.1.1-.1.1l-.1-2.7c0-.1-.1-.1-.1-.1l-.1-1.9c0-.1-.1-.1-.1-.1h-.1L41 7.7l.1-.2.1-.2c0-.1 0-.1-.1-.1l.1-2.5c0-.1 0-.1-.1-.1l-.3-.5V4l.1-.2c0-.1 0-.1-.1-.1v-.1l-.1-.6v-.1c0-.1 0-.1-.1-.1v-.2c0-.1 0-.1-.1-.1v-.2c0-.1 0-.1-.1-.1h-.1c-.1 0-.1.1-.1.1v.3c-.1 0-.1.1-.1.1V3l-.1.5c-.1 0-.1.1-.1.1v.2c.1-.1.1 0 .1 0v.1c0 .1.1.1.1.1l-.3.6v1.8l-.1.1V7l-.1.2c-.1 0-.1.1-.1.1l.1.2.1.1c-.1 0-.1.1-.1.1 0 .1.1.1.1.1l-.3 1.6h-1.7l-.3-1.7.1-.2.1-.2c0-.1 0-.1-.1-.1h-.1v-.7l.1-1.8c0-.1 0-.1-.1-.1l-.1-.6h.1l.1-.2v-.1l-.3-.7.1-.1c0-.1 0-.1-.1-.1l.1-.1c0-.1 0-.1-.1-.1v-.1c0-.1 0-.1-.1-.1l.1-.1c0-.1 0-.1-.1-.1H37c-.1 0-.1.1-.1.1v.1c-.1 0-.1.1-.1.1v.4l.1.2-.1.4v.1l-.1.2V4h.1l-.4.6v1.9c-.1 0-.1 0-.1.1s0 .1.1.1v.5c-.1 0-.1.1-.1.1v.2l.1.2c0 .1.1.1.1.1l-.3 1.6h-.1c-.1 0-.1 0-.1.1l-.1 1.9v.1h-.1s0 .1.1.2l-.2 2.5c0-.1-.1-.1-.1-.1v.3l.1.1v.2c-.1 0-.1.1-.1.1v.1l.1 2.8H35c-.1 0-.1 0-.1.1v1.8c0 .1.1.1.1.1h.5l.1 2.1c-.1 0-.1.1-.1.1l.1 1.2c-.1 0-.1.1-.1.1-.1 0-.1 0-.1.1v.2l.1.1.1 2.6-.1-.1h-.6s-.1 0-.1.1v.7s-.1 0-.1.1v1.1h-.4s0-.1-.1-.1-.1 0-.1.1h-2.3v-.2H31v-1.2h.7v-.3s0-.1-.1-.1h-.2V26h.1v-.4s0-.1-.1-.1h-.7l-.1-.1-.2-.3-.4-.5h-.2s0-.1-.1-.1c0 0 0-.1-.1-.1l-.4-.4-.5-.6-.3-.4v-.1h-.1l-.2-.3-.8-.9v-.1h-.1l-.2-.2-.6-.7h-.1v-.1l-.1-.1-.1-.1v-.1l-.5-.6-.5-.6h-.2v-.2s0-.1-.1-.1v-.1l-.5-.5h-.1l-.1.1H24s-.1 0-.1.1l-.1.2-1.7.8-2.8 1.3v-.1s-.1-.1-.2-.1c0 0-.1 0-.1.1v.1l-.4.3c0 .1 0 .1.1.2v.3s-.1 0-.1.1v.1l.1.2v.2s0 .1.1.1h.2c.1 0 .2 0 .2-.2v-.1s0-.1-.1-.1H19v-.2s0-.1-.1-.1v-.2l.2-.1L22 20l.3-.1v.1h.3v-.1l1.2-.4.6.8.7.8.1.2h-.1v.2l.1.1h.1l2.9 4 1 1.4v.3s0 .1.1.1v.4l-.1-.1H27l-.3-1.2v-.6s0-.1-.1-.1h-.1s-.1 0-.1.1v.5l-.3 1.2h-1.3l-.1-.1v-.2h-.2s-.1 0-.1.1v.5H24v-.1l-.4-1.3v-.6s0-.1-.1-.1h-.1s-.1 0-.1.1v.5l-.3 1.3v.1h-.1s0-.1-.1-.1h-.2.3s.1 0 .1-.1v-.4s0-.1-.1-.1h-.3v-.5s0-.1-.1-.1h-1.8s-.1 0-.1.1v.1h-.1s-.1 0-.1.1v.2s-.1 0-.1.1v.4s0 .1.1.1h.4-.4s-.1 0-.1.1v.5s0 .1.1.1h.4v5.2h-.5l-.1.1s0-.1-.1-.1h-.3v-1.3s0-.1-.1-.1h-.1v-2.7l-.1-1.1v-1.4h.6v-.3s0-.1-.1-.1h-.2V26h.1v-.3s0-.1-.1-.1H19l-.1-.1h-.2l-.8-.1h-1.2v-.1s-.1 0-.1.1h-.4l-.7-.1v-.1H15l-1-.1h-.7s0-.1-.1-.1c0 0-.1 0-.1.1h-1V25l-.9-.1h-.9c-.1 0-.2 0-.2.2H10v.1h-.1v.1l-.1.1-.8.6v.1l.1.1h.1v.1h.1l.1-.1L13 30l-.1.2v.2s0 .1.1.1.1 0 .1-.1h.1v.9s0 .1.1.1h.2c.1 0 .2 0 .2-.2v-.1s0-.1-.1-.1v-.7l-.1-.3-2.2-2.7v-.2h-.2l-.8-1h.4l1.2.1v.1h.3l.1-.1 5.1.8.6.2-.1 2.2v1.1l-.1.1h-.1s-.1 0-.1.1v.2h-.1v.2h.1v1.1h-1.3s-.1 0-.1.1v1.3h-.4v-1.2s0-.1-.1-.1v-1.1h.1v-.4c0-.1-.1-.1-.1-.1h-1.3c-.1 0-.1.1-.1.1v.3-.1.1h.1v2.4h-2.6v-.4.4-2.3l-.9-2.2v-.3s0-.1-.1-.1H9.5s-.1 0-.1.1v.5H9l-.2.2-.2-.2H8l-.2.2-.1.2-.1.2.1.2.1.2v.2s0 .1.1.1v.2s0 .1.1.1h.2l-.2.3h-.1s-.1 0-.1.1v.5l.9.3v1.5h-.9v-.7s0-.1-.1-.1v-.2s0-.1-.1-.1H6.2v-.6l.2-.1v-.4s0-.1-.1-.1h-.1V31h.1v-.7s0-.1-.1-.1c-.2-.2-.3-.2-.3-.2l-.9-.3v-.1c0-.1 0-.1-.1-.2-.1 0-.1 0-.2.1 0 0-.1 0-.1.1v.1l-1.1.3h-.1c-.1 0-.2.1-.2.1l-.2.1c0 .1 0 .1.1.2l-.1.1v.2l.1.1v.1h.2s.1 0 .1-.1v-.4h1.2l.2.1h.1l.5.5s0 .1.1.1v.1h-.3s-.1 0-.1.1v.3l.2.1v.8-.2s0-.1-.1-.1h-.7s-.1 0-.1.1v.2-.2s0-.1-.1-.1h-.6s-.1 0-.1.1v.4s0 .1.1.1h.2v.3l.1.5v1.1s0 .1.1.1h-.3s-.1 0-.1.1v.2s0 .1.1.1.1 0 .1-.1H4s0 .1.1.1h-.3s-.1 0-.1.1v5l.3-.2v.3s0 .1.1.1h.2-.1l-.2.1.1 1.1s0 .1.1.1l.6.1v-.3h.5V41h-.2v-.4h.2s.1 0 .1-.1v-.1h12.1v.3h.2s.1 0 .1-.1h.8s0 .1.1.1h.1l.1-.1v-.3l47.4.2V40h3.5s.1 0 .1-.1V36l.4-.6.2-.2V35l.1-.1.3-.4.2-.1.6-.8.1-.2.4-.6v-.1h-1.5l.1-4.3.1-.1h1.8l.3-.3v-.1h.3v-.2c.1.1 0 0 0 0zM3.9 32.5h-.1.1zm4-2.9l.1-.2h.5l.2.2v.1l-.1.2v.2l.1.2v.2H8v-.2l-.1-.2-.1-.2.1-.2v-.1zm1.1-.2h.5l.2.2.1.2.1.1v.1l-.1.1-.1.2s-.1 0-.1.1v.1H9v-.1l-.1-.1-.1-.2v-.2l.1-.2.1-.2v-.1zm-.3 1.2h.1s0 .1-.1 0c0 .1 0 0 0 0zm-.3.3H9v.2h-.5l-.1-.2zm1 0v.1-.1zm1.3-1.8l.1.6c-.1-.1-.2-.1-.4-.1h-.1v.1h-.4l-.1-.2-.2-.2v-.2h1.1zm-.5 1.3V30v.4zm.2-.5zm-1.5 1.7H11v1.9H9.9v-.1h-.7v.2-.3l.5-.1v-.1h-.1l-.5-.1v.6h-.2v-2zm4.4-1.7l.1.2h-.1V30l.1-.1-3.5-3.8-.1-.1.4-.8v.5s0 .1.1.1h.1v.1l2.9 4zm5.5-8.1zm16.9.3h.1v.6l-.1.1v.4h.1c-.1 0-.1.1-.1.1h-.1c0-.1 0-.1-.1-.1l.2-1.1zm.3-2.2l.9 1h-.1l.1.1h-1l.1-1.1zm.2-10.3c0 .1.1.1.1.1v.1h-.1s0 .1.1.1v.6s-.1.1 0 .1v.4h-.1s0 .1.1.1v.5h-.1c0-.1-.1-.1-.1-.1l.1-1.9zm1.3-4l-.3-.7v-.1l.3.8zm0 .9l-.2-.4.2.4zm-.4.4h-.2v-.4h.2v.4zm.1-.5v-.2.2zm-.3.2c0-.1 0-.1 0 0 0-.1 0-.1 0 0zm.2-3c-.1 0-.1 0 0 0zm0 .4v.6c-.1 0-.1.1-.1.1V4h.1zm0 .9v.2H37v-.2h.1zm-.3.5v.2h-.2l.2-.8v.6zm.5.2v-.4l.2.4h-.2zm0-1.3l.2.3h-.2v-.3zm-.4 1.9c0 .1 0 .1 0 0zm0-.3h.2v.4h-.2v-.4zm.6-1.1v.5l-.2-.5h.2zm-.6-1.4l.1-.3.1.3h-.2zm-.1 1.2h-.2l.2-.3v.3zm-.2.2V5v-.2zm.2 1.3v.4h-.2l.2-.4zm0 .7c.1.1 0 .1 0 0zm.4-.4c0 .1 0 .1 0 0zm0 .1v-.3l.2.3h-.2zm.1-.6h.2v.5l-.2-.5zm-.7 0h.1l-.1.3v-.3zm-.1.8h.1l-.1.3v-.3zm.3.2v.3h-.2l.2-.3zm0 .1c0 .1.1.1 0 0l.1.2h-.1V7zm.1.1h.2v.1h-.2v-.1zm.2 0c.1 0 .1-.1 0 0 .1-.1.1-.2 0-.2v-.2.5H37l.1-.1zm.1-.4l.3.5h-.3v-.5zm.2 0h.2v.4l-.2-.4zm-1-.6v.4-.4zm.1.6V7l-.1.2.1-.5zm-.1.7c.1 0 .1 0 0 0 .1 0 .1 0 0 0 .1 0 .1 0 0 0h.9l-.1.2h-1l.2-.2zm4.9 2.2l.3 1.8h-.1v.1h-.1c0-.1 0-.1-.1-.1v-.3c.1 0 .1-.1 0-.2v-.8s.1-.1.1-.2h-.1c.1 0 0-.1 0-.1v-.2zm.4 12.5h.1l.1 1.1c-.1 0-.1.1-.1.1 0-.1 0-.1-.1-.1h-.1c.1 0 .1-.1 0 0 .1-.1.1-.1.1-.2h-.1v-.3l.1-.6zm10.5 2.7s0 .1 0 0c-.1.1-.1.1 0 0l-.1.1.1-.1c-.1.1-.1.1 0 0-.1.1-.1.1 0 0-.1.1-.1.1 0 0-.1.1-.1.1 0 0-.1.1-.1.1 0 0zm13.6-3c0-.1 0-.1 0 0v-.3.3zm-.3-.6l-.6-.4.8.4h-.2zM63 26.5h.5l.2.1.1.1s0 .1.1.1v.4h-1v-.1l-.2-.1.1-.2v-.1l.1-.2h.1zm.9-1.1h.5l.2.1.2.2v.5l-.1.1-.1.1s-.1 0-.1.1H64v-.2l-.1-.1-.1-.2.1-.2.1-.2-.1-.2zm4.6 2.5l-.3.2H68v-.2h.5zM4 32.8h.1H4zm5.6.7c0 .1.1.1 0 0l.1.1h1.4-1.8v-.1l.1-.1.2.1zM9.5 26zm0-.1s0-.1 0 0l.1-.2-.1.2zm26.4-4l.1-.2.4.6.3.4H36V22c0-.1 0-.1-.1-.1zm1.1-.7zm.1-13.4v.3l-.1-.3h.1zm.9 1.9c-.1 0-.1.1 0 0h-.2.2zm2.5-1.9v.3l-.2-.3h.2zm9.8 10.7c-.1 0 0-.1 0-.1v.1c0-.1 0-.1 0 0 0-.1 0-.1 0 0 0-.1 0-.1 0 0 0-.1 0 0 0 0zm0-.1zm1.6 1.6v-.1.1zm13.9 1.2c-.1 0-.1 0 0 0l-.4-.2.4.2zm-29.7 2.2c0-.1 0-.1-.1-.1 0-.1 0-.1-.1-.1v-.1h.6l-.5.6v-.1l.1-.2zm.9-5.6l-1-1 1.1 1H37zm.9-7.9zm3.6 3.8v-.1.1zm.1.6c-.1 0-.2 0-.2.1v-.1l-.3-.5h.2l.2.1.1.4zm-.1 8.4h-.8l.3-.4.4-.5v.1c-.1 0-.1.1-.1.1l.2.7zm20.9-.4zm-.1.8h.1l-.2.2.1-.2zm.3.6h.2-.2zm-.2 0h-.1.1zm0 .3l-.4.5v.1l.1-.5h.3zm.2 2.7v.1-1.7 1.6zm1.4.3v-.2.2zm-26.9-5.8L37 21l.1.1h.1v.1h-.1zm-1.2-6.6c0 .1 0 .1 0 0zm1-5.6v-.5l.1.2V9l-.1.1s0 .1.1.1l-.1.1h-.2v-.1c.1 0 .1 0 .1-.1l.1-.1zm-.1-.8v.6l-.2-.4.1-.3.1.1zm.3.3l-.1-.2v-.1l.1.3c.1 0 0 0 0 0zm2.2 2l-.1.2h-.1l.2-.2zm.5-.6l.6.8h-.9l.3-.8zm.5-.9v-.6l.1.2v.1l.2.3-.1.1s0 .1.1.1l-.1.1h-.2v-.1c.1 0 .1 0 .1-.1l-.1-.1zm-.2-1l.1.2v.7l-.2-.5.1-.4zm1.4 5.4c-.1-.1-.1 0 0 0l-.2.1H41l.3-.7h.1v.5c.1 0 .1 0 .1.1zm-2.2 3c-.1 0-.1 0 0 0h-.2v-.1l.9-.8h.5l.9.8v.1h-2.1zm1.1 5h1v.1l-.4.5-.4.6h-.3l-1.1-1.2h1.2zm-3.6 1.9c.1 0 .1-.1 0 0l.4-.2h.8l.1.9h-1.9v-.1l.6-.6zm-.7-10.5c.1 0 .1 0 0 0l.5.7s-.1 0 0 0h-.1l-.4-.7zm.3-2.8l.3.5-.3-.5zm1.2-.3l-.5.8H37l.6-.8zm1 1.3h.4l-.2.7-.2-.7c-.1 0-.1 0 0 0zm1.9-.3c-.1 0-.1 0 0 0l-.6-.9.6.9zm.6 1l-.5-.6h.1v.1l.4.5zm.3 3.2h-.9v-.2l.4-.8.5.8v.2zm-5.1-2.3s0-.1 0 0v-.2h2.1v.1l-.5 1h-1.1l-.1-.1h-.1l-.3-.8c0 .1 0 0 0 0zm1.9-1.6l.3.9v.2h-2.2V12l.6-.9h.1c.1 0 .1-.1.1-.1h1.1zm2.5-.3c0 .1 0 .1 0 0v.2h-.2l-.1-.1.3-.1zm-1.3.3c.1 0 .1 0 0 0h.9l.1.1h.1l.6.9v.3l.1.2v.1l-.5.9h-1.1l-.6-1v-.1c0-.1 0-.1-.1-.1l.1-.1v-.3l.3-.9h.1zm-2.2 3.7l-.1-.2h.3l-.2.2zm1.5-2.7l.1-.1v.4l.1.1-.1.1h.1l-.1.1h-.1l-.1-.1v-.1l.1-.1V12zm-.2.5zm2.1 1.3l-.2.5H40l-.3-.5h.9zm-.4 1zm.1-.2l-.1.1-.1-.1h.2zm-.2.1zm-1.3-2l.5.8h-1.1l.6-.8zm.8 1.1l.3.5v.1c0 .1.1.1.1.1l-.4-.7zm.5 1c0 .1 0 .1 0 0 .1.1.1 0 .1 0h-.1zm-1.6-2.1l-.5.8.5-.8zm-.5 1.1h1.3l.5.8.1.3h-2.5l.1-.3.5-.8zm-1.1 0h.8l-.3.5H37l-.2-.5h.1zm3.5 1.1zm-1.5-3.2zm-.3 0zm-1.8-.8l.1-.2.2.1-.1.1h-.2zm-.6 1.2zm.8 2.7s0 .1.1.1h.1c.1 0 .1 0 0-.1l.2.1v-.1.1H37v-.1zm1.6 1.4h-.1l-.9-.9v-.1h2.2v.1l-.9.9h-.3zm1.7-.9c-.1 0-.1 0 0 0zm.5-1.5c0-.1 0-.1 0 0v-.1.1c0-.1.1-.1 0 0 .1-.1.1-.1 0 0 .1 0 .1 0 0 0zm-4.1-3.3zm.1.6l-.4.5.4-.5zm-.6 1.1c0 .1 0 .1 0 0zm.9 3c.1.1.1.1.1 0l.1.1-.2-.1zm1.5 1.2c.1 0 .1 0 0 0h.3v.1h-.3v-.1c0 .1 0 .1 0 0h-.1.1zm2.9 7.6v.4h-.1v-.1l.1-.1V24c0-.1 0-.1 0 0 0-.1 0-.1 0 0zm-.4 2.3c-.1 0-.1 0 0 0zm.2-.4zm-.2.1c0 .1 0 .1 0 0zm-.9.3zm-1.5 0zm-.4 0zm5.2 0zm-2.1-.6h-.2c-.1 0-.2.1-.2.2s-.1.1-.1.2v.1h-.3l-.6-.5h1.4zm-4-3l1.2-1.2h.2l1.3 1.2h-2.7zm2.9.1s.1 0 0 0c.1 0 .1 0 0 0h.2v.2l-.1-.1-.1-.1zm-.4 2.4c-.1 0-.1 0 0 0l-.2.1-.5-.7v-.2h2.2v.1l-.4.2h-.1l-.9.5h-.1zm-1.9.1l.6-.7h.2l.6.7H38zm2.4-2.2v.2l.1.1h.2l.6.6v.1h-1.9l.1-.9.9-.1zm-1 .9h-.2l.1-.9.1.9zm-.2 0c-.1-.1-.2-.1-.2-.1h-.5c-.1 0-.1.1-.1.1h-.1l.1-.9h.7l.1.9zm-.6.1h.3c0 .1 0 .1.1.1-.1 0-.1 0-.1.1s.1.1.1.1h-.5l.1-.3zm.4.5l.6.7h-.1l-.5-.7zm1.2.7l.7-.4-.7.4zm1.1-.8c0-.1 0-.1 0 0zm-3-.5h-.2l.1-.9.1.9zm.2-7.2l-1 1 1-1zm-.1 3l-.9 1.1.9-1.1zm-.8-2l1.1-1h.1l1.1 1h-2.3zm.6-1.1h.2l-1.1 1h-.2l-1.1-1h2.2zm.4 3.1h.3l1 1.2h-2.3l1-1.2zm-.1 1.4h.4v.1l-.4-.1zm-.1 3.2c-.1 0-.1.1-.1.1 0 .1.1.1.1.1l-.5.7h-.1l.5-.7v-.1h-.1l-.5.7h-.2l-1.3-.8h2.2zm1.2 1.1l.4-.1v.1h-.4zm.7.7zm-2.1-.1c.1-.1.1-.1 0 0zm-.1-.1c.1-.1.1-.1 0 0 .1-.1.1-.1 0 0zm-.1-.1zm-.2.1c0-.1 0-.1 0 0zm8 2.2zm-.2 0h-.2.2zm-2.3-1.9H43h.3zm-1.8-1h-1.3l.8-.4v-.1l.4-.2h.1v.7c0-.1 0 0 0 0zM40 20.9l-.9-1.1.9 1.1zm.4-.1l-.2.1-.9-1.1h1.9l-.8 1zm1-8.2zm-.1-.2v-.5c0-.1 0-.1-.1-.1v-.1l.1.7c.1 0 0 0 0 0zm-.6-3.6zm.3.9c0 .1 0 .1 0 0l-.4.9-.6-.9h1zm-2.9.7l-.1-.2.1.2zm-.3-.4l.3.7h-.8l-.1-.1.5-.8.1.1v.1zm-.4-.3l-.6.8-.3-.6s0-.1.1-.1h-.1v-.1h.9zm-.8.8c0 .1 0 .2.1.2h-.4l.1-.5.2.3zm0 3.5l.3.6v.3h-.8v-.2l.5-.7zm.3 1.3c0-.1 0-.1 0 0 0-.1 0-.1 0 0zm0 .2c.1 0 .1 0 0 0h.6l.9.8v.1h-2.3v-.1l.8-.8zm1.3 4.3l-.9 1.1h-.1c0-.1 0 0-.1 0v-.1H37l-.8-1h2zm-.7 1.4zm-.5 1.6h.2l-.1.1-.1-.1c-.1.1-.1.2-.1.2v.1h-.1l.2-.3zm.3 2.5l-.4-.3.4.3zm.3.1h.3-.3zm.4.3s.1 0 0 0l1.4-.1s0 .1.1.1h.2l.5.6h-1v-.2h-.6s-.1 0-.1.1V26c0-.1-.1-.3-.3-.3-.1-.1-.3-.1-.4 0h.2zm17.7.4v.2l-.1-.2h.1zm-.2 1.7v-.1.1zm10.3.4zm1 0h-.5.5zM62 27l.4-.5v.5H62zm4.7 2.1h-.1l-.1-.1h.2v.1zm-4.3-3.8v.7h-.5l.5-.7zm4.4 3.5h-.5l-.1-.1v-.1h.5l.1.2zM62 25.1h.4l-.4.6v-.6zm.4 1.1l-.7.8.1-.8h.6zm-2.3 1.1h-.2.2zm-.4 0h-.2.2zm1.1-8.5zM55.5 28v.2-.2zm-12.6-2.3zm-1.3.4c.1-.1.1-.1 0 0zm0-.4v-.2.2zm0-.2zm-.1-2.2c-.1 0-.1 0-.1.1v.2l.1.1v.1l-.1-.1-.5-.5h.6v.1c0-.1 0 0 0 0zm0-2c.1 0 0 0 0 0zm-1-.1zm-.2 0h-.2.1l.2-.1-.1.1zm1.2-4.7zm-.3-5l-.3-.4c.1 0 .1-.1.1-.1h.1c-.1 0 0 .1.1.1v.4c0-.1 0 0 0 0zm0-.8h-.3l.2-.6.1.6zm-.5-1.3c0-.1 0-.1 0 0l.1-.4.3.4h-.4zm-3.4-.6v-.1.1zm-.3-.7c-.1 0-.1 0 0 0-.1 0-.1 0 0 0l-.2-.2v-.1l.2.3zm-.7 3c.1-.1.1-.1.2-.1 0 .1 0 .1.1.1v.1l-.3.4v-.5zm.1 2.4h-.3v-.1l.1-.4.2.5zm-.4.2zm.5.2h.1-.1l-.3.5.3-.5zm-.6.8v.1h-.1l.1-.1zm.1.6c0-.1 0-.1 0 0l.8-.1v.2l-.8.7h-.1l.1-.8zm1.1 6.1h.3v-.1l.1.1h.8l-1.2 1.2h-.3l-.3-.5v-.2l-.4-.5h1zm.3 4.8s0 .1 0 0c0 .1 0 .1 0 0 0 .1 0 .1 0 0 0 .1 0 .1 0 0zm-14.2 1.4l.2-.8.2.8h-.4zm-13-2.4h.2v.1l-.2-.1zm0 .2c.1.1.1.1 0 0v.3-.3zm56.3 7.5l.1-3.2h.4v-.3s0-.1-.1-.1h-.1l.1-.6h.7l.1 4.4h-1.2zm.3-5.4zm-4-2.4zm.2-1.4h.1-.1zm-.7-.8l.1-.2v.2h-.1zm.5-.6l.1-.1-.1.1zm-.7 0zm-2.8 5h-.2.2zm-3.7 2zm0 .2zm-4.3-6.8v.2-.2zm.3 2.3zm-8.2.8zm-.7 0zm-1 .5zm-.1-.6v-.2c.1 0 .1-.1 0 0 .1 0 .1-.1.1-.2v-1.7l.1 2.4c0-.1 0-.2-.2-.3zm-.1-4.7h-1c.1 0 .1-.1.1-.1l.9-1V21zm0-4.3zm0-.6l-.9-.8v-.1h.8l.1.1v.8zm-.6-7.5v.2-.2zm-.2-.8l.1.6h-.1v.1l-.1-.2.1-.5zm-.4 1.4v.1l-.3-.7v-.1l.3.7zm-.6.5l-.1.1.1-.1-.1.1.1-.1zm-.5.6l-.1.1-.1.3h-.6l-.1-.3c0-.1 0-.1-.1-.1l-.1-.5v-.1h1.2l-.1.6zm-1.9-.9c0-.1 0-.1 0 0l.1-.3.2.3h-.3zm.2-.9l.1.3-.1-.3zm-.2-.7l.1.6h-.1v.1l-.1-.2.1-.5zm-.4 1.4v.1l-.3-.6v-.1l.3.6zm-.9 4.7l.1-.1h.2l-.3.5h-.1l.1-.4zm-.1 2.4v.4-.4zM36 24v.2s-.1 0-.1.1v.1l.1-.4zm.1.6l1.2.7h-1.4v-.7h.2zm1.5 1.1l-.5.6.5-.6zm-2.2.6zM24.7 19zm2 8.6h-.4l.2-.7.2.7zM10.1 25zm7.6 5.9zm50.1 2v-2.3 2.3zm.2-2.6v-1.7l.1-.1h2.3l.1.1v1.7H68zm1.6-2.4l.3.2h-1.3l.3-.2h.7zm-1.9 0v.2h-.1v-.2h.1zm-1.2-.2h-.4.4zm-4.1-3.2h-.2l.1-.2.1.2zm.9-.8h.2-.2zm-4.4 3.6h-.1.1zm-3.7-1.2l.1.2H55v-.2h.2zm.2 2.4l.1.6v.2h-.2l.1-.8zm.1 1zm-10.6-2l.2-.3v.6l-.2-.3zm6.7-3.1v.4h-.1l-.1-.1-.1-1.8.3 1.5zm-1.3-6c.1-.1.1-.1 0 0 .1-.1.1-.1 0 0l.1-.1-.1.1zm-7.9 7.7V26v.1zm.4.2zm-1.3-6.5zm-.9-2h-.2l.1-.1v-.1h-.1l-.1.1-.2.1-1-1v-.1h2.3v.1s0 .1.1.1v.9h-.9zm1-3v-.3s0 .1.1.1v.2h-.1zm0-.5v-.8l-.1-1.8v.1l.3 2.5h-.2zm-.5-4.9l-.3-.5.3.5v-.1.1zm-.1-.7l.1.3-.1-.3zm.1-2c-.1 0 0-.1 0 0zm-.7-3.6l.1.3h-.2l.1-.3zm.1 2.4zm.4.4v.5l-.2-.5h.2zm-.2-.8l.2.5h-.2v-.5zm.1-.3h.1v.5l-.1-.5zm0-.2v-.2l.1.2h-.1zm-.3.5l-.1-.2h.1v.2zm-.3.5H40l.2-.6v.6zm.1.3v.4-.4zm.1 0h.1v.4h-.1v-.4zm.3.6v-.4l.2.4h-.2zm.4 0s-.1 0 0 0V6v.5zm-.6-1.8v-.6.6zm-.2 2c0-.1 0-.1 0 0v-.3.4h-.1l.1-.1zm.1-.2c.1.2.1.2.2.2v.2h-.2v-.4zm.4.2h.2v.4l-.2-.4zm.3-.1zm0 0zm-.9-2.3v.3H40l.2-.3zM40 6.5l.2-.6h.1v.6H40zm.3.2v.5H40l.3-.5zm0 .3c0 .1.1.1 0 0l.1.2h-.1V7zm.1.1h.2v.1h-.2v-.1zm.2 0v-.3l.2.4h-.3l.1-.1zm.4.1v-.5.5zm-1-2.4V5v-.2zm0 1.1h.1l-.1.3v-.3zm0 .8l-.1.3v-.3h.1zm0 .7h1l-.1.2H40v-.2c-.1 0 0 0 0 0zm.3 1.9c-.1.1-.1.1 0 0l-.5.1.2-.6.3.5zm-2.6.1l-.3-.4c.1 0 0-.1 0-.1l.3.5v-.1.1zm-.1-.7l.1.3-.1-.3zm-.7.6c-.1.1-.1.1 0 0l-.5.1.2-.6.3.5zm-.8 2.4v1.8c-.1 0 0 .1 0 .1h.1s-.1.1 0 .2v.4H36l.1-2.5zm-.3 2.8v.3h-.1l.1-.3zm.1 2.4l1 .9h-1.1l.1-.9zm0 4.3c0 .1 0 .1 0 0v.3h-.1l.1-.3zm0 4.8l.1.1h.2V26l-.1-.1h.1v-.1l-.1-.1v-.1h1.4l-.5.6h-.2l-.1.1v-.1s0-.1-.1-.1h-.7v.2-.3zm-1.3 2.3zm-.2 0zm-.2 0zm-3.4-2v-.2h.2v.2h-.2zm-1.1 1.5v-.1.1zm-5.2-.2s0 .1 0 0v-.2.2zm-2.4 0H21h1.1zm-2.7-1.3v-.2h.1v.2h-.1zm-.7-.7zm-6.6-.5s0-.1 0 0zm-.2 0zm-2 0v.1-.1zm7.8 5.6zm-.2 1.7v.2h-1.2v-.2h1.2zM4.1 33H4h.1zm0 .6c0-.1 0-.1 0 0v-.1l-.1-.3h.1v1.3-.9zm63.8-.7v-2.3h2.5v2.3h-2.5zm2.5-4.8h-.2l-.3-.2h.5v.2zm2.1-.3v.3h-1.1l.3-.2.8-.1c-.1.1 0 .1 0 0zm-1.3.1l-.3.3h-.1V28h.4zm-2-.2h-2 2zm-6.6-3.2V24v.5zm.2-.4V24h.1l-.1.1zm-.2-.7v-1.1 1.1zm-3.2 4.2h.1-.1zm-7.7-1.8zm.3-1.2l.1.1-.1-.1-.1.1.1-.1zm0-4.4zm-1.5-1.5v-.1s.1 0 .1-.1l-.1.2h.1v.1l-.1-.1zm-8.2 7.6h.3-.3zm-.4-4.4h-.2l.1-.3v-.1h-.1v-.3l.1-.1c0-.1 0-.1-.1-.1l.1-1.2h.1v2.1zm-.3-4.1v-.9l.1-.1v-.1h-.1v-1.5h.1l.1 2.7h-.2zm-.4-8.4l-.1-.1v-.1l.1.2zm-.8-6.7l.1.1-.1-.1c0 .1 0 .1 0 0zm-.6 6l-.1.7.1-.7zm-2 .7l-.1-.1v-.1l.1.2zM37 2.6v.2c0 .1 0 .1.1.1H37v-.3s0-.1 0 0zm-.6 6.1l-.1.7.1-.7zm-.7 6.4h.1v2.7h-.2l.1-2.7zm.1 4.7V21l-.1.1.1.1v.7h-.1l.1-2.1zm-.1 3.8c.1 0 .1.1.1.1v2.6h-.3l.2-2.7zM19 22zm.2-1l-.2.1s0-.1-.1-.1v-.1h.1c0 .1.1.1.2.1-.1 0-.1 0 0 0l.4-.3 1-.3-1.4.6zm1.4 6v-.4h1.6v.4h-1.6zm-.2-.2v.2-.2zm.4.8zm-1.5 1.7zm-5.9 1.1v.2-.2zm0 .6v-.2.2zm-2.5-.3v.5H9.6V31s.1 0 .1-.1v-.3h.1v-.1l.1-.2v-.1h.1v.8l.3-.4.1-.1v-.3c.3 0 .4-.1.5-.1v.6zm-2.9.9l.7-.1v.2l-.7-.1zm-4.5-1.5l1-.3.4.1.9.2H3.5zm2.1.7l.2-.5H6v.5h-.4zm0-.5l-.1.4-.5-.4h.6zM6 30zm-1.3-.4l.1.1v.1l-.1-.2zm-1.4.5l-.1.1.1-.1zm2.3 1H6h-.4zm0 .5H6v.7h-.2s-.1 0-.1.1v.1h-.1v-.9zm-.7.9h.2-.2zm-.3 0h.1-.1zm-.4 0h-.1.1zm-.1 2.4zm1 6.6v-.3h.1v.1c0 .1 0 .1-.1.2.1 0 0-.1 0 0zm-.2-.4v.4h-.1v-.8h.1v.4zm-.2.6v.3l-.4-.1-.1-1h.1s0 .1.1.1c0 0 .1 0 .1-.1l.2-.1v.9c-.1-.1-.1-.1 0 0-.1-.1-.1-.1 0 0zm.5-1.3h-.9.9zm65.3-7.5v-5.1l.1 5h-.1z"/><path class="st0" d="M65.6 22.4c0 .1 0 .2.1.2h.1c.1 0 .2-.1.2-.2v-.2l-.1-.1-.1.1v.1c-.2 0-.2 0-.2.1zm.2 0zm-23.3-2.6c.1 0 .1-.1 0 0zm23.8 20.8c.1 0 .1-.1 0 0z"/></svg>